<?xml version="1.0" encoding="UTF-8"?>
<!-- Created with Inkscape (http://www.inkscape.org/) -->
<svg width="201.75" height="138.75" version="1.1" viewBox="0 0 201.75 138.75" xmlns="http://www.w3.org/2000/svg">
 <defs>
  <clipPath id="clipPath2">
   <path transform="translate(-140.68 -77.456)" d="M 0,104.06 H 151.313 V 0 H 0 Z"/>
  </clipPath>
  <clipPath id="clipPath3">
   <path d="m4.376 73.054h135.7v-38.517h-135.7z"/>
  </clipPath>
  <clipPath id="clipPath5">
   <path transform="matrix(1.3333 0 0 -1.3333 0 138.75)" d="M 0,104.06 H 151.313 V 0 H 0 Z"/>
  </clipPath>
  <clipPath id="clipPath7">
   <path d="M 0,104.06 H 151.313 V 0 H 0 Z"/>
  </clipPath>
  <clipPath id="clipPath9">
   <path transform="translate(-71.062 -29.808)" d="M 0,104.06 H 151.313 V 0 H 0 Z"/>
  </clipPath>
  <clipPath id="clipPath11">
   <path transform="translate(-100.76 -41.648)" d="M 0,104.06 H 151.313 V 0 H 0 Z"/>
  </clipPath>
  <clipPath id="clipPath13">
   <path transform="translate(-124.49 -61.118)" d="M 0,104.06 H 151.313 V 0 H 0 Z"/>
  </clipPath>
  <clipPath id="clipPath15">
   <path d="M 0,104.06 H 151.313 V 0 H 0 Z"/>
  </clipPath>
  <clipPath id="clipPath17">
   <path transform="translate(-15.347 -58.704)" d="M 0,104.06 H 151.313 V 0 H 0 Z"/>
  </clipPath>
  <clipPath id="clipPath19">
   <path d="M 0,104.06 H 151.313 V 0 H 0 Z"/>
  </clipPath>
  <clipPath id="clipPath21">
   <path d="M 0,104.06 H 151.313 V 0 H 0 Z"/>
  </clipPath>
  <clipPath id="clipPath23">
   <path transform="translate(-32.158 -57.041)" d="M 0,104.06 H 151.313 V 0 H 0 Z"/>
  </clipPath>
  <clipPath id="clipPath25">
   <path transform="translate(-44.691 -55.112)" d="M 0,104.06 H 151.313 V 0 H 0 Z"/>
  </clipPath>
  <clipPath id="clipPath27">
   <path transform="translate(-50.788 -59.445)" d="M 0,104.06 H 151.313 V 0 H 0 Z"/>
  </clipPath>
  <clipPath id="clipPath29">
   <path transform="translate(-59.085 -55.7)" d="M 0,104.06 H 151.313 V 0 H 0 Z"/>
  </clipPath>
  <clipPath id="clipPath31">
   <path transform="translate(-67.923 -59.179)" d="M 0,104.06 H 151.313 V 0 H 0 Z"/>
  </clipPath>
  <clipPath id="clipPath33">
   <path d="M 0,104.06 H 151.313 V 0 H 0 Z"/>
  </clipPath>
  <clipPath id="clipPath35">
   <path d="M 0,104.06 H 151.313 V 0 H 0 Z"/>
  </clipPath>
  <clipPath id="clipPath37">
   <path transform="translate(-19.561 -45.469)" d="M 0,104.06 H 151.313 V 0 H 0 Z"/>
  </clipPath>
  <clipPath id="clipPath39">
   <path transform="translate(-22.901 -48.417)" d="M 0,104.06 H 151.313 V 0 H 0 Z"/>
  </clipPath>
  <clipPath id="clipPath41">
   <path transform="translate(-31.479 -43.149)" d="M 0,104.06 H 151.313 V 0 H 0 Z"/>
  </clipPath>
  <clipPath id="clipPath43">
   <path transform="translate(-42.772 -45.469)" d="M 0,104.06 H 151.313 V 0 H 0 Z"/>
  </clipPath>
  <clipPath id="clipPath45">
   <path d="M 0,104.06 H 151.313 V 0 H 0 Z"/>
  </clipPath>
  <clipPath id="clipPath47">
   <path transform="translate(-53.907 -43.065)" d="M 0,104.06 H 151.313 V 0 H 0 Z"/>
  </clipPath>
  <clipPath id="clipPath49">
   <path transform="translate(-59.194 -48.417)" d="M 0,104.06 H 151.313 V 0 H 0 Z"/>
  </clipPath>
  <clipPath id="clipPath51">
   <path transform="translate(-72.537 -45.469)" d="M 0,104.06 H 151.313 V 0 H 0 Z"/>
  </clipPath>
  <clipPath id="clipPath53">
   <path transform="translate(-75.877 -48.417)" d="M 0,104.06 H 151.313 V 0 H 0 Z"/>
  </clipPath>
  <clipPath id="clipPath55">
   <path transform="translate(-93.569 -45.469)" d="M 0,104.06 H 151.313 V 0 H 0 Z"/>
  </clipPath>
  <clipPath id="clipPath57">
   <path transform="translate(-96.91 -48.417)" d="M 0,104.06 H 151.313 V 0 H 0 Z"/>
  </clipPath>
  <clipPath id="clipPath59">
   <path transform="translate(-105.02 -48.417)" d="M 0,104.06 H 151.313 V 0 H 0 Z"/>
  </clipPath>
  <clipPath id="clipPath61">
   <path transform="translate(-13.495 -22.523)" d="M 0,104.06 H 151.313 V 0 H 0 Z"/>
  </clipPath>
  <clipPath id="clipPath63">
   <path transform="translate(-17.692 -19.255)" d="M 0,104.06 H 151.313 V 0 H 0 Z"/>
  </clipPath>
  <clipPath id="clipPath65">
   <path transform="translate(-25.645 -19.448)" d="M 0,104.06 H 151.313 V 0 H 0 Z"/>
  </clipPath>
  <clipPath id="clipPath67">
   <path transform="translate(-28.919 -23.91)" d="M 0,104.06 H 151.313 V 0 H 0 Z"/>
  </clipPath>
  <clipPath id="clipPath69">
   <path transform="translate(-31.591 -23.48)" d="M 0,104.06 H 151.313 V 0 H 0 Z"/>
  </clipPath>
  <clipPath id="clipPath71">
   <path transform="translate(-36.984 -19.255)" d="M 0,104.06 H 151.313 V 0 H 0 Z"/>
  </clipPath>
  <clipPath id="clipPath73">
   <path transform="translate(-38.41 -19.986)" d="M 0,104.06 H 151.313 V 0 H 0 Z"/>
  </clipPath>
  <clipPath id="clipPath75">
   <path transform="translate(-38.139 -23.576)" d="M 0,104.06 H 151.313 V 0 H 0 Z"/>
  </clipPath>
  <clipPath id="clipPath77">
   <path transform="translate(-49.475 -20.749)" d="M 0,104.06 H 151.313 V 0 H 0 Z"/>
  </clipPath>
  <clipPath id="clipPath79">
   <path transform="translate(-53.765 -19.448)" d="M 0,104.06 H 151.313 V 0 H 0 Z"/>
  </clipPath>
  <clipPath id="clipPath81">
   <path transform="translate(-53.283 -23.576)" d="M 0,104.06 H 151.313 V 0 H 0 Z"/>
  </clipPath>
  <clipPath id="clipPath83">
   <path transform="translate(-62.884 -19.523)" d="M 0,104.06 H 151.313 V 0 H 0 Z"/>
  </clipPath>
  <clipPath id="clipPath85">
   <path transform="translate(-65.344 -26.573)" d="M 0,104.06 H 151.313 V 0 H 0 Z"/>
  </clipPath>
  <clipPath id="clipPath87">
   <path transform="translate(-68.789 -25.146)" d="M 0,104.06 H 151.313 V 0 H 0 Z"/>
  </clipPath>
  <clipPath id="clipPath89">
   <path transform="translate(-73.509 -21.017)" d="M 0,104.06 H 151.313 V 0 H 0 Z"/>
  </clipPath>
  <clipPath id="clipPath91">
   <path transform="translate(-78.882 -22.523)" d="M 0,104.06 H 151.313 V 0 H 0 Z"/>
  </clipPath>
  <clipPath id="clipPath93">
   <path transform="translate(-83.372 -20.158)" d="M 0,104.06 H 151.313 V 0 H 0 Z"/>
  </clipPath>
  <clipPath id="clipPath95">
   <path transform="translate(-86.374 -19.448)" d="M 0,104.06 H 151.313 V 0 H 0 Z"/>
  </clipPath>
  <clipPath id="clipPath97">
   <path transform="translate(-89.275 -19.986)" d="M 0,104.06 H 151.313 V 0 H 0 Z"/>
  </clipPath>
  <clipPath id="clipPath99">
   <path transform="translate(-91.265 -19.986)" d="M 0,104.06 H 151.313 V 0 H 0 Z"/>
  </clipPath>
  <clipPath id="clipPath101">
   <path transform="translate(-95.311 -21.501)" d="M 0,104.06 H 151.313 V 0 H 0 Z"/>
  </clipPath>
  <clipPath id="clipPath103">
   <path transform="translate(-99.901 -19.255)" d="M 0,104.06 H 151.313 V 0 H 0 Z"/>
  </clipPath>
  <clipPath id="clipPath105">
   <path transform="translate(-107.26 -20.749)" d="M 0,104.06 H 151.313 V 0 H 0 Z"/>
  </clipPath>
  <clipPath id="clipPath107">
   <path transform="translate(-111.93 -21.501)" d="M 0,104.06 H 151.313 V 0 H 0 Z"/>
  </clipPath>
  <clipPath id="clipPath109">
   <path transform="translate(-115.35 -20.749)" d="M 0,104.06 H 151.313 V 0 H 0 Z"/>
  </clipPath>
  <clipPath id="clipPath111">
   <path transform="translate(-120.26 -22.523)" d="M 0,104.06 H 151.313 V 0 H 0 Z"/>
  </clipPath>
  <clipPath id="clipPath113">
   <path transform="translate(-121.55 -19.523)" d="M 0,104.06 H 151.313 V 0 H 0 Z"/>
  </clipPath>
  <clipPath id="clipPath115">
   <path transform="translate(-125.36 -19.448)" d="M 0,104.06 H 151.313 V 0 H 0 Z"/>
  </clipPath>
  <clipPath id="clipPath117">
   <path transform="translate(-126.72 -19.986)" d="M 0,104.06 H 151.313 V 0 H 0 Z"/>
  </clipPath>
  <clipPath id="clipPath119">
   <path transform="translate(-126.44 -23.576)" d="M 0,104.06 H 151.313 V 0 H 0 Z"/>
  </clipPath>
  <clipPath id="clipPath121">
   <path transform="translate(-133.03 -23.48)" d="M 0,104.06 H 151.313 V 0 H 0 Z"/>
  </clipPath>
 </defs>
 <path transform="matrix(1.3333 0 0 -1.3333 187.57 35.472)" d="m0 0h-45.63v14.231h-31.133v12.374h-63.801v-94.534h71.91l-2.191-9.526 9.191 6.682c1.231 0.896 2.489 1.848 3.754 2.844h61.539l2e-3 27.629 2.072 10.451c2.949 14.882 4.016 27.594 4.06 28.127l0.731 8.883z" clip-path="url(#clipPath2)" fill="#fff"/>
 <g clip-path="url(#clipPath5)" opacity=".7">
  <path transform="matrix(1.3333 0 0 -1.3333 0 138.75)" d="m140.08 73.054h-135.7v-38.517h135.7z" clip-path="url(#clipPath3)" fill="#0059a2"/>
 </g>
 <path transform="matrix(1.3333 0 0 -1.3333 0 138.75)" d="m140.08 32.887h-135.7v-19.258h135.7z" clip-path="url(#clipPath7)" fill="#0059a2"/>
 <g fill="#e30613">
  <path transform="matrix(1.3333 0 0 -1.3333 94.749 99.002)" d="m 0,0 h 27.238 c 0,0 -9.134,-10.653 -21.767,-19.836 C 9.417,-2.674 0,0 0,0" clip-path="url(#clipPath9)"/>
  <path transform="matrix(1.3333 0 0 -1.3333 134.34 83.216)" d="m 0,0 25.96,7.905 c 0,0 -4.114,-11.391 -13.676,-26.081 C 13.521,-0.48 0,0 0,0" clip-path="url(#clipPath11)"/>
  <path transform="matrix(1.3333 0 0 -1.3333 165.99 57.256)" d="m 0,0 21.732,14.815 c 0,0 -1.056,-12.834 -3.994,-27.649 C 12.176,-1.456 0,0 0,0" clip-path="url(#clipPath13)"/>
 </g>
 <g fill="#fff">
  <path transform="matrix(1.3333 0 0 -1.3333 0 138.75)" d="m8.702 65.594h0.822v-10.482h-0.822z" clip-path="url(#clipPath15)"/>
  <path transform="matrix(1.3333 0 0 -1.3333 20.462 60.474)" d="m0 0h-0.235c-1.423 0-3.12-0.155-3.12-1.719 0-0.937 0.626-1.286 1.384-1.286 1.932 0 1.971 1.803 1.971 2.571zm0.078-2.446h-0.026c-0.366-0.853-1.293-1.314-2.115-1.314-1.893 0-2.193 1.37-2.193 2.013 0 2.389 2.376 2.501 4.099 2.501h0.157v0.363c0 1.216-0.405 1.831-1.515 1.831-0.692 0-1.344-0.168-1.958-0.587v0.852c0.509 0.266 1.371 0.49 1.958 0.49 1.645 0 2.337-0.797 2.337-2.656v-3.144c0-0.572 0-1.006 0.065-1.496h-0.809z" clip-path="url(#clipPath17)"/>
  <path transform="matrix(1.3333 0 0 -1.3333 0 138.75)" d="m20.278 65.594h2.35v-10.482h-2.35z" clip-path="url(#clipPath19)"/>
  <path transform="matrix(1.3333 0 0 -1.3333 0 138.75)" d="m26.988 63.581h-2.35v1.845h2.35zm-2.35-1.188h2.35v-7.282h-2.35z" clip-path="url(#clipPath21)"/>
  <path transform="matrix(1.3333 0 0 -1.3333 42.877 62.692)" d="m0 0c0.835 0 1.501 0.754 1.501 1.872 0 0.81-0.443 1.719-1.501 1.719-0.875 0-1.332-0.824-1.332-1.816 0-1.132 0.628-1.775 1.332-1.775m3.773-1.077c0-2.99-1.358-3.954-4.099-3.954-1.123 0-2.049 0.252-2.598 0.461l0.117 1.984c0.719-0.377 1.319-0.6 2.298-0.6 1.357 0 2.088 0.685 2.088 2.109v0.392h-0.026c-0.561-0.853-1.344-1.245-2.284-1.245-1.867 0-3.029 1.51-3.029 3.662 0 2.166 0.953 3.788 3.068 3.788 1.005 0 1.815-0.588 2.311-1.482h0.026v1.314h2.128z" clip-path="url(#clipPath23)"/>
  <path transform="matrix(1.3333 0 0 -1.3333 59.588 65.264)" d="m0 0h-2.142v1.342h-0.025c-0.471-1.048-1.411-1.509-2.481-1.509-1.853 0-2.598 1.397-2.598 2.907v4.542h2.35v-3.522c0-1.369 0.444-1.83 1.083-1.83 0.967 0 1.463 0.712 1.463 2.278v3.074h2.35z" clip-path="url(#clipPath25)"/>
  <path transform="matrix(1.3333 0 0 -1.3333 67.717 59.487)" d="m0 0c0 0.838-0.366 1.523-1.306 1.523-0.848 0-1.252-0.685-1.304-1.523zm-2.584-1.425c0.13-1.007 0.848-1.398 1.997-1.398 0.639 0 1.37 0.154 2.075 0.559v-1.775c-0.757-0.321-1.618-0.462-2.493-0.462-2.245 0-3.955 1.413-3.955 3.816s1.527 3.801 3.642 3.801c2.519 0 3.433-1.914 3.433-4.08v-0.461z" clip-path="url(#clipPath27)"/>
  <path transform="matrix(1.3333 0 0 -1.3333 78.78 64.481)" d="m0 0c1.462 0 1.971 1.677 1.971 2.976 0 1.3-0.509 2.977-1.971 2.977-1.566 0-1.971-1.593-1.971-2.977 0-1.383 0.405-2.976 1.971-2.976m2.794-0.588h-0.823v1.132h-0.026c-0.444-0.908-1.122-1.299-2.076-1.299-1.827 0-2.741 1.621-2.741 3.731 0 2.167 0.784 3.732 2.741 3.732 1.306 0 1.959-1.021 2.076-1.37h0.026v4.556h0.823z" clip-path="url(#clipPath29)"/>
  <path transform="matrix(1.3333 0 0 -1.3333 90.564 59.842)" d="m0 0c0 1.245-0.47 2.474-1.697 2.474-1.215 0-1.959-1.3-1.959-2.474zm0.404-3.843c-0.574-0.251-1.318-0.391-1.931-0.391-2.207 0-3.029 1.593-3.029 3.731 0 2.181 1.122 3.732 2.807 3.732 1.879 0 2.649-1.622 2.649-3.536v-0.447h-4.556c0-1.509 0.758-2.725 2.194-2.725 0.6 0 1.475 0.265 1.866 0.531z" clip-path="url(#clipPath31)"/>
  <path transform="matrix(1.3333 0 0 -1.3333 0 138.75)" d="m8.702 51.618h0.822v-10.481h-0.822z" clip-path="url(#clipPath33)"/>
  <path transform="matrix(1.3333 0 0 -1.3333 0 138.75)" d="m11.978 50.891h0.822v-3.046h-0.822z" clip-path="url(#clipPath35)"/>
  <path transform="matrix(1.3333 0 0 -1.3333 26.081 78.122)" d="m0 0c0 0.838-0.366 1.522-1.305 1.522-0.849 0-1.254-0.684-1.305-1.522zm-2.585-1.425c0.131-1.007 0.848-1.398 1.998-1.398 0.639 0 1.371 0.154 2.075 0.559v-1.775c-0.757-0.32-1.619-0.46-2.493-0.46-2.246 0-3.956 1.411-3.956 3.814 0 2.404 1.528 3.801 3.643 3.801 2.519 0 3.433-1.914 3.433-4.08v-0.461z" clip-path="url(#clipPath37)"/>
  <path transform="matrix(1.3333 0 0 -1.3333 30.535 74.191)" d="m0 0h2.142v-1.341h0.026c0.47 1.048 1.41 1.508 2.48 1.508 1.853 0 2.598-1.396 2.598-2.905v-4.542h-2.35v3.522c0 1.369-0.444 1.83-1.083 1.83-0.967 0-1.462-0.713-1.462-2.278v-3.074h-2.351z" clip-path="url(#clipPath39)"/>
  <path transform="matrix(1.3333 0 0 -1.3333 41.973 81.214)" d="m0 0c0.548-0.252 1.357-0.503 2.207-0.503 0.482 0 0.952 0.084 0.952 0.586 0 1.23-3.342 0.364-3.342 2.991 0 1.677 1.54 2.361 2.898 2.361 0.809 0 1.632-0.098 2.389-0.419l-0.183-1.746c-0.496 0.321-1.239 0.489-1.827 0.489-0.509 0-1.084-0.098-1.084-0.504 0-1.131 3.499-0.237 3.499-3.004 0-1.942-1.631-2.431-3.173-2.431-1.057 0-1.775 0.111-2.467 0.349z" clip-path="url(#clipPath41)"/>
  <path transform="matrix(1.3333 0 0 -1.3333 57.03 78.122)" d="m0 0c0 0.838-0.365 1.522-1.305 1.522-0.849 0-1.254-0.684-1.306-1.522zm-2.585-1.425c0.131-1.007 0.849-1.398 1.998-1.398 0.639 0 1.371 0.154 2.075 0.559v-1.775c-0.757-0.32-1.619-0.46-2.493-0.46-2.246 0-3.956 1.411-3.956 3.814 0 2.404 1.527 3.801 3.643 3.801 2.519 0 3.433-1.914 3.433-4.08v-0.461z" clip-path="url(#clipPath43)"/>
  <path transform="matrix(1.3333 0 0 -1.3333 0 138.75)" d="m48.737 49.605h-2.35v1.845h2.35zm-2.35-1.188h2.35v-7.28h-2.35z" clip-path="url(#clipPath45)"/>
  <path transform="matrix(1.3333 0 0 -1.3333 71.876 81.327)" d="m0 0c0.835 0 1.501 0.755 1.501 1.872 0 0.812-0.444 1.719-1.501 1.719-0.875 0-1.332-0.824-1.332-1.816 0-1.132 0.627-1.775 1.332-1.775m3.772-1.076c0-2.99-1.357-3.954-4.099-3.954-1.122 0-2.049 0.251-2.597 0.461l0.117 1.985c0.718-0.378 1.319-0.602 2.298-0.602 1.357 0 2.089 0.685 2.089 2.11v0.392h-0.027c-0.561-0.853-1.345-1.244-2.284-1.244-1.867 0-3.029 1.509-3.029 3.661 0 2.165 0.953 3.787 3.068 3.787 1.005 0 1.815-0.587 2.311-1.481h0.025v1.313h2.128z" clip-path="url(#clipPath47)"/>
  <path transform="matrix(1.3333 0 0 -1.3333 78.926 74.191)" d="m0 0h2.142v-1.341h0.025c0.47 1.048 1.41 1.508 2.48 1.508 1.854 0 2.598-1.396 2.598-2.905v-4.542h-2.35v3.522c0 1.369-0.443 1.83-1.083 1.83-0.966 0-1.462-0.713-1.462-2.278v-3.074h-2.35z" clip-path="url(#clipPath49)"/>
  <path transform="matrix(1.3333 0 0 -1.3333 96.716 78.122)" d="m0 0c0 0.838-0.365 1.522-1.306 1.522-0.848 0-1.253-0.684-1.305-1.522zm-2.584-1.425c0.13-1.007 0.847-1.398 1.997-1.398 0.639 0 1.371 0.154 2.074 0.559v-1.775c-0.756-0.32-1.618-0.46-2.492-0.46-2.246 0-3.956 1.411-3.956 3.814 0 2.404 1.528 3.801 3.643 3.801 2.519 0 3.434-1.914 3.434-4.08v-0.461z" clip-path="url(#clipPath51)"/>
  <path transform="matrix(1.3333 0 0 -1.3333 101.17 74.191)" d="m0 0h2.142v-1.341h0.026c0.47 1.048 1.409 1.508 2.48 1.508 0.965 0 1.762-0.446 2.127-1.396 0.548 0.978 1.451 1.396 2.415 1.396 1.959 0 2.404-1.187 2.404-3.157v-4.29h-2.352v3.912c0 0.825-0.273 1.44-0.938 1.44-0.837 0-1.333-0.713-1.333-2.278v-3.074h-2.348v3.912c0 0.825-0.275 1.44-0.941 1.44-0.836 0-1.331-0.713-1.331-2.278v-3.074h-2.351z" clip-path="url(#clipPath53)"/>
  <path transform="matrix(1.3333 0 0 -1.3333 124.76 78.122)" d="m0 0c0 0.838-0.367 1.522-1.306 1.522-0.848 0-1.254-0.684-1.304-1.522zm-2.586-1.425c0.132-1.007 0.849-1.398 1.997-1.398 0.641 0 1.371 0.154 2.077 0.559v-1.775c-0.758-0.32-1.62-0.46-2.494-0.46-2.245 0-3.955 1.411-3.955 3.814 0 2.404 1.526 3.801 3.641 3.801 2.52 0 3.434-1.914 3.434-4.08v-0.461z" clip-path="url(#clipPath55)"/>
  <path transform="matrix(1.3333 0 0 -1.3333 129.21 74.191)" d="m0 0h2.141v-1.341h0.025c0.47 1.048 1.411 1.508 2.48 1.508 1.855 0 2.599-1.396 2.599-2.905v-4.542h-2.35v3.522c0 1.369-0.444 1.83-1.084 1.83-0.966 0-1.461-0.713-1.461-2.278v-3.074h-2.35z" clip-path="url(#clipPath57)"/>
  <path transform="matrix(1.3333 0 0 -1.3333 140.02 74.191)" d="m0 0h1.384v1.635l2.309 0.769v-2.404h1.646v-1.761h-1.646v-2.682c0-0.881 0.197-1.328 0.94-1.328 0.236 0 0.484 0.056 0.72 0.098l0.078-1.635c-0.444-0.056-0.889-0.14-1.476-0.14-2.101 0-2.61 0.992-2.61 2.725v2.962h-1.345z" clip-path="url(#clipPath59)"/>
  <path transform="matrix(1.3333 0 0 -1.3333 17.993 108.72)" d="m0 0c0-0.086-9e-3 -0.181-0.025-0.285-0.017-0.104-0.033-0.263-0.045-0.479-0.014-0.064-0.064-0.197-0.152-0.397-0.04-0.101-0.057-0.168-0.05-0.204-0.034-0.1-0.114-0.215-0.241-0.345-0.127-0.243-0.422-0.516-0.883-0.817-0.047-0.028-0.131-0.082-0.252-0.161-0.308-0.186-0.649-0.29-1.024-0.311-0.034-0.022-0.077-0.033-0.131-0.033-0.381 0-0.686 0.215-0.914 0.645-0.02 0.036-0.056 0.1-0.111 0.193l-9e-3 0.022c-0.054 0.072-0.131 0.262-0.231 0.571-0.034 0.1-0.071 0.222-0.111 0.365 7e-3 0.028-3e-3 0.096-0.03 0.204v0.322c7e-3 0.064 0.017 0.165 0.03 0.301 0 0.036 0.01 0.122 0.031 0.258 0.02 0.115 0.023 0.201 9e-3 0.258-6e-3 0.087 4e-3 0.219 0.031 0.398 0.02 0.229 0.11 0.362 0.271 0.398 0.241 0 0.378-0.118 0.412-0.355 6e-3 -0.049 0-0.2-0.021-0.451-0.027-0.05-0.085-0.1-0.174-0.151-0.034-0.035-0.058-0.178-0.071-0.429l-0.029-0.291c0.035-0.043 0.053-0.1 0.053-0.172v-0.182c0.054-0.416 0.211-0.792 0.471-1.13 0.053-0.057 0.15-0.125 0.291-0.204 0.067-0.014 0.14-0.022 0.22-0.022 0.467 0 0.922 0.189 1.367 0.565 0.443 0.377 0.715 0.804 0.815 1.284 0 0.057 0.013 0.165 0.04 0.323 0.027 0.122 0.03 0.254 0.01 0.398-0.04 0.28-0.093 0.427-0.16 0.441-0.054-0.014-0.138 0.014-0.251 0.085-0.054 0.014-0.099 0.072-0.136 0.173-0.037 0.1-0.066 0.157-0.085 0.172 6e-3 0.028 0.03 0.089 0.07 0.183 0.127 0.128 0.244 0.2 0.351 0.215 0.168 0.028 0.264-0.012 0.292-0.119 0.066-0.071 0.134-0.183 0.201-0.333 0.08-0.179 0.133-0.294 0.16-0.344 0.014-0.215 0.017-0.401 0.011-0.559" clip-path="url(#clipPath61)"/>
  <path transform="matrix(1.3333 0 0 -1.3333 23.589 113.07)" d="m0 0-0.231 0.064c-0.047 0.022-0.083 0.097-0.11 0.227-0.041 0.178-0.098 0.3-0.171 0.365-0.034 0.057-0.081 0.146-0.14 0.268-0.021 0.108-0.088 0.225-0.202 0.355-0.114 0.129-0.18 0.233-0.2 0.312-0.067 0.086-0.282 0.391-0.643 0.913-0.081 0.115-0.211 0.323-0.392 0.624-0.074 0.129-0.167 0.272-0.281 0.43-0.014 0.065-0.057 0.128-0.131 0.188-0.073 0.061-0.114 0.131-0.12 0.21-0.034 0.028-0.064 0.061-0.09 0.097l-0.02 0.043c-0.034 0.079-0.085 0.143-0.152 0.193-0.073 0.014-0.147-0.021-0.22-0.107-0.014-0.015-0.034-0.033-0.061-0.054-0.121-0.28-0.18-0.771-0.18-1.473v-1.042c0.026-0.129 0.04-0.262 0.04-0.399 0-0.136-0.01-0.272-0.031-0.408 0-0.165-0.02-0.262-0.06-0.29-0.034-0.058-0.05-0.111-0.05-0.162 6e-3 -0.021 0.014-0.06 0.02-0.118-0.014-0.021-0.074-0.064-0.18-0.128-0.034-0.015-0.061-0.033-0.081-0.054-0.087 0-0.208 0.014-0.361 0.043-7e-3 0.014-0.01 0.032-0.01 0.053v0.022l-0.011 0.086c-0.013 0.086-0.03 0.283-0.05 0.591 7e-3 0.05 4e-3 0.115-9e-3 0.193-0.014 0.065-0.014 0.111 0 0.14-7e-3 0.609-7e-3 0.983 0 1.118-0.034 0.157-0.047 0.333-0.041 0.527 0.011 0.114 0.024 0.312 0.041 0.592-0.047 0.064-0.06 0.153-0.041 0.269 0.013 0.186 0.013 0.322 0 0.408v-0.011c0-0.014 0.064 0.09 0.192 0.311 0.04-6e-3 0.074-0.01 0.1-0.01 7e-3 -7e-3 0.017-0.022 0.031-0.043 0.054-0.086 0.124-0.122 0.212-0.108 0.067 0.065 0.121 0.186 0.161 0.366 0.013 0.072 0.071 0.154 0.172 0.248l0.09 0.064c0.041 0.014 0.084 0.05 0.132 0.107l0.04 0.054c0.02 0.029 0.043 0.039 0.07 0.032 0.438-0.294 0.71-0.613 0.817-0.957 0.034-0.014 0.125-0.139 0.273-0.376 0.168-0.294 0.434-0.723 0.797-1.29 0.027-0.05 0.081-0.118 0.162-0.204 0.08-0.086 0.138-0.165 0.171-0.237 0.033-0.071 0.107-0.182 0.222-0.333 6e-3 -0.042 0.06-0.129 0.162-0.258 0.019-0.021 0.036-0.05 0.05-0.086 0.134-0.122 0.269-0.319 0.403-0.591 0.168-0.244 0.252-0.412 0.252-0.505-0.073-0.086-0.187-0.176-0.341-0.269" clip-path="url(#clipPath63)"/>
  <path transform="matrix(1.3333 0 0 -1.3333 34.194 112.82)" d="m0 0c-0.046-0.05-0.134-0.111-0.261-0.183-0.147-0.028-0.298 0.04-0.452 0.204-0.013 0.029-0.02 0.062-0.02 0.098 0 0.021 8e-3 0.062 0.025 0.123s0.022 0.105 0.016 0.134c-0.014 0.05-0.041 0.133-0.081 0.247-6e-3 0.158-0.05 0.388-0.131 0.689-7e-3 0.129-0.037 0.261-0.09 0.398-7e-3 0.036-0.03 0.099-0.07 0.193-0.034 0.072-0.051 0.136-0.051 0.193-0.033 0.079-0.111 0.19-0.23 0.333-0.034 0.022-0.145 0.093-0.332 0.216-0.261 0.043-0.402 0.06-0.422 0.053-0.047 0.014-0.103 0-0.171-0.043-0.086-0.05-0.147-0.079-0.18-0.086-0.074-0.072-0.181-0.186-0.321-0.344-0.028-0.014-0.122-0.111-0.282-0.29-0.047-0.079-0.107-0.204-0.181-0.376l-0.08-0.258c-7e-3 -0.044-0.017-0.154-0.03-0.333-7e-3 -0.123 0.017-0.227 0.07-0.312 0.147-0.222 0.381-0.37 0.703-0.441 0.268-0.057 0.543-0.043 0.824 0.043 0.133 0.071 0.21 0.158 0.231 0.258 0.08 0.114 0.181 0.178 0.301 0.194 0.147-0.051 0.267-0.14 0.361-0.27-0.02-0.035-0.034-0.096-0.04-0.182-0.034-0.057-0.09-0.147-0.17-0.269-0.101-0.042-0.292-0.096-0.573-0.161-0.04-7e-3 -0.144-0.047-0.311-0.118-0.094-7e-3 -0.218-0.018-0.371-0.033-0.014-6e-3 -0.048 4e-3 -0.101 0.033-0.121 0.021-0.298 0.05-0.533 0.086-0.187 0.093-0.371 0.204-0.552 0.333-0.08 0.108-0.181 0.311-0.301 0.612-0.027 0.273-0.013 0.489 0.04 0.646 0 0.036 0.034 0.14 0.101 0.312 0.019 0.035 0.053 0.093 0.1 0.172 7e-3 0.064 0.044 0.15 0.111 0.257 0.046 0.079 0.097 0.162 0.15 0.248 0.047 0.014 0.083 0.046 0.111 0.097l0.03 0.053c0.06 0.079 0.117 0.129 0.17 0.151 0.013 0.028 0.044 0.061 0.091 0.096l0.03 0.022c0.027 0.015 0.05 0.043 0.07 0.086 0.067 0.037 0.164 0.094 0.291 0.173 0.034-0.03 0.068-0.033 0.101-0.011 0.047 7e-3 0.107 0.035 0.181 0.085 0.167 7e-3 0.415-0.014 0.743-0.064 0.027-0.014 0.067-0.029 0.12-0.043-0.027 0.101-0.077 0.251-0.15 0.451-0.108 0.294-0.278 0.52-0.512 0.677-0.114 0.079-0.218 0.104-0.311 0.076-0.034-7e-3 -0.121-0.025-0.262-0.054-0.087-0.058-0.176-0.118-0.266-0.183-0.091-0.064-0.153-0.139-0.186-0.225-0.04-0.029-0.1-0.068-0.181-0.118l-0.15-0.194c-0.047-0.014-0.108 0.021-0.181 0.108-0.06 0.136-0.027 0.293 0.1 0.473 0.087 0.121 0.231 0.25 0.432 0.386 0.067 0.059 0.176 0.11 0.327 0.157 0.15 0.046 0.252 0.084 0.307 0.112 0.354 0 0.655-0.118 0.902-0.355 0.068-0.079 0.168-0.233 0.302-0.462 0.067-0.158 0.184-0.398 0.351-0.721-6e-3 -0.035 0.027-0.168 0.101-0.397 0.013-0.05 0.024-0.097 0.03-0.14 0.013-0.093 0.074-0.233 0.181-0.419 0-0.15 7e-3 -0.208 0.02-0.172 7e-3 -0.036 0.034-0.101 0.08-0.193 0.047-0.094 0.067-0.172 0.06-0.237 0.027-0.143 0.078-0.351 0.152-0.623 6e-3 -0.108 0.043-0.255 0.11-0.441 0.013-0.037 0.02-0.101 0.02-0.194 7e-3 -0.014 0.04-0.048 0.1-0.102s0.091-0.116 0.091-0.188c-0.04-7e-3 -0.074-0.022-0.101-0.043" clip-path="url(#clipPath65)"/>
  <path transform="matrix(1.3333 0 0 -1.3333 38.559 106.87)" d="m0 0c0-0.051-0.04-0.141-0.12-0.269-0.094-0.151-0.148-0.248-0.161-0.291-0.047-0.079-0.184-0.314-0.411-0.709-0.04-0.071-0.165-0.333-0.372-0.785-7e-3 -0.022-0.027-0.043-0.061-0.064-0.026-0.115-0.107-0.323-0.241-0.624-0.08-0.144-0.134-0.265-0.161-0.365-0.086-0.302-0.127-0.513-0.119-0.635 0-0.05 0.016-0.147 0.049-0.29 0-0.043-0.076-0.179-0.231-0.408-0.06-0.086-0.157-0.133-0.291-0.14-0.14-7e-3 -0.244 0.039-0.311 0.14-0.013 0.086-0.192 0.494-0.533 1.225-0.1 0.237-0.214 0.48-0.341 0.731-0.033 0.101-0.077 0.247-0.131 0.441-0.1 0.208-0.187 0.444-0.26 0.71-0.021 0.1-0.054 0.161-0.101 0.183v0.032c0 0.093-0.043 0.207-0.13 0.343-0.088 0.136-0.134 0.237-0.141 0.301-7e-3 0.022-0.025 0.065-0.056 0.129-0.03 0.065-0.045 0.115-0.045 0.151 0.02 0.05 0.057 0.115 0.111 0.194 0.034 7e-3 0.064 0.011 0.091 0.011 0.046 7e-3 0.12-0.013 0.22-0.06s0.154-0.092 0.161-0.135c0-6e-3 -3e-3 -0.021-0.01-0.043v-0.042c7e-3 -0.086 0.047-0.201 0.12-0.344 0.013-0.058 0.054-0.168 0.121-0.334 0.053-0.136 0.08-0.25 0.08-0.343 0.114-0.258 0.281-0.685 0.503-1.28 0.026-0.079 0.089-0.19 0.19-0.333 0-0.05 0.028-0.118 0.085-0.204s0.089-0.151 0.096-0.194l0.03-0.01c0.02 0 0.052 7e-3 0.095 0.021 0.044 0.014 0.079 0.022 0.106 0.022 0.027 0.085 0.101 0.254 0.221 0.505 0.047 0.114 0.137 0.315 0.271 0.601 0.027 0.065 0.14 0.272 0.341 0.624 0.027 0.051 0.067 0.154 0.121 0.312 0.107 0.187 0.261 0.469 0.462 0.849l-0.01 0.032c0 0.022 0.013 0.056 0.04 0.103 0.027 0.046 0.04 0.087 0.04 0.123 0 0.179 0.054 0.323 0.161 0.431 0.047 0.028 0.124 0.057 0.231 0.085 0.067 0 0.13-0.046 0.191-0.139 0.06-0.093 0.094-0.179 0.1-0.258" clip-path="url(#clipPath67)"/>
  <path transform="matrix(1.3333 0 0 -1.3333 42.122 107.44)" d="m0 0c-0.014 0.042-0.054 0.067-0.121 0.075-0.067 7e-3 -0.101 0.057-0.101 0.151 0 0.049-0.05 0.074-0.15 0.074-0.034 0-0.087-8e-3 -0.161-0.026-0.073-0.018-0.127-0.027-0.16-0.027-0.101 0-0.191-0.029-0.272-0.086-0.127-0.072-0.314-0.161-0.561-0.269-0.141-0.093-0.332-0.273-0.574-0.537-0.04-0.015-0.084-0.055-0.13-0.118-0.047-0.093-0.094-0.189-0.141-0.285-0.046-0.097-0.07-0.192-0.07-0.285 0.087 0.014 0.137 0.021 0.151 0.021 0.033 0 0.077-0.018 0.13-0.054 0.054-0.036 0.097-0.054 0.131-0.054h0.12c0.014 0.015 0.027 0.022 0.041 0.022 0.013 0 0.026-9e-3 0.04-0.027s0.027-0.027 0.04-0.027c0.027 0 0.064 0.016 0.11 0.049 0.048 0.032 0.084 0.048 0.111 0.048s0.05-7e-3 0.07-0.021c0.188 0.071 0.418 0.172 0.693 0.301 0.288 0.193 0.442 0.297 0.462 0.312 0.147 0.121 0.268 0.268 0.362 0.44-0.014 0.294-0.02 0.401-0.02 0.323m1.667-3.086-0.01-0.043c7e-3 -0.014 0.01-0.032 0.01-0.054 0-0.043-0.014-0.086-0.041-0.129l-0.019-0.032c-0.034-0.057-0.067-0.118-0.101-0.182-0.027-0.029-0.094-0.051-0.201-0.065-0.04 0-0.104 0.014-0.191 0.043-0.134-0.043-0.328-0.129-0.582-0.258-0.107-0.014-0.258-0.065-0.452-0.15-0.026 0.021-0.054 0.032-0.08 0.032-0.02 0-0.062-0.013-0.126-0.038-0.063-0.025-0.116-0.03-0.156-0.016-0.1-0.043-0.258-0.064-0.472-0.064-0.034 0-0.085 6e-3 -0.156 0.021-0.07 0.015-0.121 0.022-0.155 0.022-0.06 0.014-0.15 0.043-0.271 0.086-0.034-7e-3 -0.164 0.017-0.391 0.075-0.054 7e-3 -0.13 0.05-0.227 0.129-0.097 0.078-0.213 0.157-0.346 0.236h-0.011c-0.026 0-0.05 0.032-0.07 0.097-0.241 0.222-0.425 0.556-0.552 1-6e-3 0.151-0.017 0.405-0.03 0.763 0 0.093 0.027 0.255 0.081 0.485 0.02 0.056 0.043 0.142 0.069 0.257 0.094 0.171 0.235 0.398 0.422 0.677 0.161 0.144 0.415 0.348 0.764 0.613 0.053 0.079 0.175 0.162 0.366 0.248s0.337 0.128 0.437 0.128h0.07c0.021 0 0.041 0.017 0.061 0.049 0.167 0.032 0.28 0.048 0.341 0.048 0.08 0 0.15-0.018 0.211-0.054 0.067-7e-3 0.151-0.059 0.251-0.155 0.101-0.098 0.171-0.153 0.211-0.167 0.047-0.194 0.094-0.294 0.141-0.301l0.02-0.011c0.013-0.015 0.019-0.035 0.019-0.065 0-0.015-2e-3 -0.032-9e-3 -0.054v-0.043c0.02-0.042 0.047-0.107 0.08-0.192 7e-3 -0.044 0.01-0.091 0.01-0.14 0-0.065-0.016-0.162-0.05-0.291-0.04-0.1-0.117-0.236-0.231-0.408-0.06-0.072-0.181-0.172-0.361-0.301-0.108-0.08-0.258-0.162-0.453-0.247-0.107-0.051-0.275-0.137-0.502-0.259-0.114-0.064-0.335-0.132-0.663-0.204l-0.19-0.042c-0.027-0.015-0.054-0.022-0.081-0.022-0.02 0-0.048 3e-3 -0.086 0.01-0.036 8e-3 -0.065 0.012-0.085 0.012h-0.02c-0.04-0.03-0.08-0.044-0.12-0.044-0.02 0-0.051 5e-3 -0.091 0.016s-0.07 0.016-0.09 0.016c-0.02-7e-3 -0.03-0.025-0.03-0.053 0.02-0.101 0.06-0.248 0.12-0.441 0.147-0.344 0.405-0.588 0.774-0.731 0.027-0.036 0.157-0.083 0.391-0.14 0.235-0.057 0.385-0.086 0.453-0.086 0.053 0 0.106 7e-3 0.16 0.021 0.014 0.022 0.033 0.033 0.06 0.033 0.014 0 0.034-4e-3 0.06-0.011 0.027-7e-3 0.047-0.011 0.061-0.011 0.046 0 0.119 0.013 0.216 0.038s0.169 0.038 0.216 0.038c0.147 0 0.248 0.032 0.301 0.096 0.107 8e-3 0.264 0.082 0.471 0.225 0.075 0.051 0.158 0.184 0.252 0.399 0.054 0.022 0.104 0.032 0.15 0.032 0.074 0 0.152-0.022 0.232-0.064l0.231-0.312c0-0.015-3e-3 -0.036-0.01-0.065" clip-path="url(#clipPath69)"/>
  <path transform="matrix(1.3333 0 0 -1.3333 49.312 113.07)" d="m0 0-0.231 0.064c-0.047 0.022-0.084 0.097-0.11 0.227-0.041 0.178-0.098 0.3-0.171 0.365-0.034 0.057-0.081 0.146-0.142 0.268-0.019 0.108-0.086 0.225-0.2 0.355-0.114 0.129-0.181 0.233-0.201 0.312-0.067 0.086-0.281 0.391-0.643 0.913-0.08 0.115-0.21 0.323-0.391 0.624-0.074 0.129-0.168 0.272-0.282 0.43-0.013 0.065-0.057 0.128-0.13 0.188-0.074 0.061-0.114 0.131-0.121 0.21-0.033 0.028-0.064 0.061-0.09 0.097l-0.02 0.043c-0.034 0.079-0.084 0.143-0.151 0.193-0.073 0.014-0.147-0.021-0.221-0.107-0.014-0.015-0.033-0.033-0.06-0.054-0.121-0.28-0.18-0.771-0.18-1.473v-1.042c0.026-0.129 0.04-0.262 0.04-0.399 0-0.136-0.01-0.272-0.031-0.408 0-0.165-0.02-0.262-0.06-0.29-0.034-0.058-0.05-0.111-0.05-0.162 7e-3 -0.021 0.013-0.06 0.02-0.118-0.013-0.021-0.074-0.064-0.18-0.128-0.035-0.015-0.061-0.033-0.081-0.054-0.087 0-0.208 0.014-0.362 0.043-7e-3 0.014-0.01 0.032-0.01 0.053v0.022l-0.01 0.086c-0.013 0.086-0.03 0.283-0.05 0.591 6e-3 0.05 3e-3 0.115-0.01 0.193-0.014 0.065-0.014 0.111 0 0.14-7e-3 0.609-7e-3 0.983 0 1.118-0.034 0.157-0.047 0.333-0.041 0.527 0.011 0.114 0.024 0.312 0.041 0.592-0.047 0.064-0.06 0.153-0.041 0.269 0.014 0.186 0.014 0.322 0 0.408v-0.011c0-0.014 0.064 0.09 0.192 0.311 0.04-6e-3 0.074-0.01 0.101-0.01 7e-3 -7e-3 0.017-0.022 0.031-0.043 0.053-0.086 0.124-0.122 0.211-0.108 0.068 0.065 0.122 0.186 0.162 0.366 0.013 0.072 0.07 0.154 0.171 0.248l0.091 0.064c0.041 0.014 0.084 0.05 0.131 0.107l0.04 0.054c0.021 0.029 0.044 0.039 0.071 0.032 0.437-0.294 0.709-0.613 0.817-0.957 0.034-0.014 0.125-0.139 0.273-0.376 0.168-0.294 0.433-0.723 0.797-1.29 0.026-0.05 0.08-0.118 0.161-0.204 0.08-0.086 0.138-0.165 0.171-0.237 0.034-0.071 0.108-0.182 0.223-0.333 6e-3 -0.042 0.06-0.129 0.161-0.258 0.02-0.021 0.037-0.05 0.05-0.086 0.135-0.122 0.27-0.319 0.404-0.591 0.168-0.244 0.252-0.412 0.252-0.505-0.073-0.086-0.187-0.176-0.341-0.269" clip-path="url(#clipPath71)"/>
  <path transform="matrix(1.3333 0 0 -1.3333 51.213 112.1)" d="m0 0c6e-3 -0.044-3e-3 -0.091-0.03-0.145s-0.051-0.11-0.071-0.167c-0.066-0.122-0.18-0.247-0.341-0.376-0.114-0.014-0.228 0.054-0.341 0.205-0.088 0.121-0.148 0.25-0.182 0.386-0.019 0.071-0.059 0.247-0.119 0.527v0.075c0 0.029-8e-3 0.072-0.022 0.129-0.014 0.058-0.02 0.1-0.02 0.13-7e-3 0.079-9e-3 0.174-9e-3 0.29v1.204c7e-3 0.029 0.027 0.297 0.06 0.806-9e-3 0.157-0.019 0.286-0.026 0.387-7e-3 0.1-0.013 0.168-0.015 0.204-2e-3 0.035-4e-3 0.039-4e-3 0.01-0.01 0.029-0.015 0.065-0.015 0.108-0.027 0.33 0.041 0.502 0.204 0.516 0.048 8e-3 0.137-0.021 0.266-0.086 0.048-0.057 0.076-0.128 0.082-0.215 7e-3 -0.057-1e-3 -0.14-0.025-0.247-0.023-0.108-0.035-0.183-0.035-0.226 6e-3 -0.071 0.027-0.132 0.06-0.183-0.04-0.122-0.06-0.272-0.06-0.451v-0.322c-5e-3 -0.101-0.018-0.248-0.04-0.441 0.026-0.029 0.04-0.061 0.04-0.097-7e-3 -0.08-7e-3 -0.201 0-0.365 0.023-0.273 0.043-0.463 0.06-0.57-6e-3 -0.05-6e-3 -0.111 0-0.183 0.013-0.15 0.043-0.298 0.088-0.441 0.071-0.201 0.149-0.298 0.233-0.29 0.013 0.029 0.045 0.061 0.097 0.096 0.013 0 0.043-0.041 0.092-0.124 0.049-0.081 0.073-0.13 0.073-0.144m-0.542 6.031c0.019-0.029 0.029-0.061 0.029-0.096 0-0.073-0.023-0.169-0.07-0.291-6e-3 -0.022-0.02-0.032-0.04-0.032-0.027-8e-3 -0.065 0-0.115 0.021-0.051 0.022-0.086 0.033-0.106 0.033-0.053-0.036-0.137-0.072-0.251-0.108-0.087 0-0.204 0.04-0.351 0.118 0-0.029-7e-3 0.032-0.02 0.183 0 0.035 6e-3 0.068 0.02 0.096 6e-3 0.086 0.055 0.178 0.145 0.274 0.091 0.098 0.143 0.155 0.156 0.173s0.033 0.027 0.061 0.027c0.14 0.014 0.257-0.039 0.351-0.161 0.12-0.158 0.184-0.237 0.191-0.237" clip-path="url(#clipPath73)"/>
  <path transform="matrix(1.3333 0 0 -1.3333 50.852 107.31)" d="m0 0h0.02c0.013 0 0.03 0.011 0.05 0.032 0.014 0.058 0 0.115-0.04 0.172l-0.03 0.043-0.05 0.366c-7e-3 0.043 0.067 0.104 0.22 0.183 0.028-7e-3 0.077-0.075 0.151-0.204v-0.033c0.053-0.1 0.124-0.25 0.211-0.452 0-0.021 0.017-0.146 0.051-0.375 6e-3 -0.043 6e-3 -0.086 0-0.129 0.019-0.086 0.086-0.205 0.2-0.355l0.03 0.011c0.034 0.014 0.054 0.05 0.06 0.107 0.02 0.323 0.177 0.662 0.472 1.022 0.134 0.171 0.275 0.28 0.423 0.322 0.039 0.014 0.083 0.014 0.13 0h0.05c0.073 0.029 0.181 0.029 0.321 0 0.161-0.036 0.271-0.05 0.332-0.042 0.1-0.036 0.244-0.093 0.431-0.171 0.02 0 0.044-0.012 0.071-0.033l0.019-0.021c0.047 0 0.142-0.071 0.282-0.214 0.06-0.092 0.121-0.145 0.181-0.16 0.067-0.086 0.144-0.245 0.231-0.48 0.013-0.057 0.043-0.139 0.09-0.246 0-0.064-0.054-0.113-0.16-0.149-0.047-0.014-0.124 2e-3 -0.231 0.048-0.108 0.047-0.181 0.071-0.222 0.071l0.011 0.01c7e-3 0.043-0.025 0.113-0.096 0.21-0.07 0.096-0.203 0.223-0.396 0.381-0.027 0.036-0.148 0.104-0.362 0.205-0.247-8e-3 -0.408-0.019-0.482-0.033-0.247-0.05-0.483-0.301-0.703-0.752-0.047-0.244-0.07-0.445-0.07-0.602 0-0.101 0.01-0.183 0.03-0.248-0.02-0.057-0.03-0.139-0.03-0.247 0-0.057 3e-3 -0.126 0.01-0.204 0.026-0.021 0.04-0.051 0.04-0.086v-0.043c0-0.05 6e-3 -0.104 0.02-0.161 6e-3 -0.015 0-0.032-0.02-0.054l-0.02-0.032c-7e-3 -0.108 0.02-0.266 0.08-0.473 0.013-0.144 0.02-0.363 0.02-0.656 0.013-0.108 0.06-0.248 0.141-0.419-0.014-0.065-0.064-0.154-0.151-0.269l-0.05-0.021c-0.047-0.072-0.134-0.147-0.261-0.227l-0.061-0.01c-0.08 0.043-0.176 0.115-0.29 0.215-7e-3 0.158 0.01 0.369 0.05 0.634 0.013 0.086 7e-3 0.2-0.02 0.344-0.027 0.128-0.027 0.23 0 0.301 0.013 0.043 3e-3 0.079-0.03 0.108l-0.021 0.022c0-8e-3 -0.027 0.203-0.08 0.633-0.013 0.108-0.02 0.219-0.02 0.333-0.033 0.208-0.093 0.517-0.18 0.926-0.021 0.064-0.081 0.207-0.182 0.429-0.033 0.108-0.09 0.266-0.17 0.473" clip-path="url(#clipPath75)"/>
  <path transform="matrix(1.3333 0 0 -1.3333 65.967 111.08)" d="m0 0c0.081 0.092 0.175 0.25 0.283 0.473 0.06 0.064 0.094 0.203 0.101 0.419-0.04 0.143-0.074 0.361-0.101 0.655-0.12 0.301-0.188 0.474-0.201 0.516-0.1 0.216-0.208 0.352-0.321 0.409-0.174 0.243-0.415 0.441-0.723 0.591-0.294 0-0.485-0.039-0.573-0.118-0.174-0.022-0.391-0.215-0.653-0.58 0-0.043-0.043-0.154-0.13-0.334l-0.04-0.032 0.01-0.054c-7e-3 -0.043-0.026-0.121-0.054-0.236-0.016-0.043-0.037-0.122-0.066-0.237-0.013-0.1-0.013-0.254 0-0.462-0.028-0.058-0.041-0.118-0.041-0.183 0.011-0.028 0.025-0.079 0.041-0.151 0-0.014-9e-3 -0.037-0.026-0.069s-0.025-0.063-0.025-0.091l0.015-0.14c0.03-0.043 0.042-0.101 0.036-0.172v-0.183l0.046-0.366c0.036 0.201 0.051 0.334 0.046 0.398l0.018 0.13c-0.02 0.085-0.03 0.16-0.03 0.225l0.03 0.14c0.074 0.071 0.147 0.104 0.221 0.096l0.14-0.042c7e-3 -0.123 0.044-0.297 0.111-0.527-0.034-0.107-0.051-0.24-0.051-0.398v-0.42l0.102-0.021c0.221 0.021 0.542 0.1 0.958 0.236 0.121 8e-3 0.248 0.061 0.383 0.162 0.161 0.122 0.269 0.194 0.323 0.216zm0.866 0.838c6e-3 -0.086 0.01-0.144 0.01-0.172-0.014-0.401-0.23-0.797-0.648-1.188s-0.818-0.586-1.2-0.586c-0.06-0.015-0.151-0.047-0.271-0.096h-0.08c-0.121-0.036-0.302-0.057-0.543-0.065-0.041-0.028-0.084-0.049-0.131-0.064l-0.02-0.085c0-0.022 7e-3 -0.047 0.02-0.076-6e-3 -0.049-9e-3 -0.116-9e-3 -0.202 0-0.115 6e-3 -0.254 0.02-0.418 0.013-0.057 0.036-0.136 0.069-0.236 0-0.092 0.018-0.213 0.051-0.363 0.04-0.178 0.063-0.3 0.07-0.363-0.06-0.215-0.127-0.321-0.201-0.321-0.287 0.014-0.445 0.1-0.471 0.258-0.013 0.2-0.031 0.397-0.051 0.591l0.03 0.129-0.02 0.043c-7e-3 0.286-0.033 0.48-0.08 0.58l-0.04 0.044c-7e-3 0.028-0.01 0.053-0.01 0.075 0 0.035 0.01 0.064 0.03 0.086-0.02 0.057-0.099 0.113-0.236 0.166-0.137 0.054-0.206 0.124-0.206 0.21 7e-3 0.143 0.074 0.225 0.201 0.247 7e-3 0.028 0.016 0.068 0.03 0.118-0.014 0.072-0.027 0.183-0.04 0.334 7e-3 0.071 0 0.124-0.02 0.161-0.06 0.609-0.087 1.01-0.081 1.204v0.462c0.047 0.136 0.074 0.269 0.081 0.398 7e-3 0.25 0.074 0.477 0.202 0.677 0.027 0.057 0.06 0.15 0.101 0.28 0.081 0.164 0.243 0.358 0.485 0.581 0.04 0.014 0.205 0.092 0.494 0.236 0.196 0.1 0.385 0.151 0.566 0.151 0.067-0.015 0.164-0.044 0.292-0.087 0.074-0.036 0.185-0.082 0.334-0.14 0.067-0.057 0.161-0.139 0.282-0.246 0.04-0.044 0.215-0.27 0.525-0.678 0.027-0.043 0.064-0.111 0.111-0.204 0.088-0.366 0.185-0.645 0.293-0.839 0.013-0.122 0.044-0.297 0.091-0.527z" clip-path="url(#clipPath77)"/>
  <path transform="matrix(1.3333 0 0 -1.3333 71.687 112.82)" d="m0 0c-0.046-0.05-0.134-0.111-0.261-0.183-0.147-0.028-0.298 0.04-0.452 0.204-0.013 0.029-0.02 0.062-0.02 0.098 0 0.021 9e-3 0.062 0.025 0.123 0.017 0.061 0.022 0.105 0.016 0.134-0.014 0.05-0.041 0.133-0.081 0.247-6e-3 0.158-0.05 0.388-0.131 0.689-7e-3 0.129-0.037 0.261-0.09 0.398-7e-3 0.036-0.031 0.099-0.071 0.193-0.033 0.072-0.05 0.136-0.05 0.193-0.033 0.079-0.11 0.19-0.23 0.333-0.034 0.022-0.145 0.093-0.332 0.216-0.261 0.043-0.402 0.06-0.422 0.053-0.047 0.014-0.103 0-0.171-0.043-0.087-0.05-0.147-0.079-0.18-0.086-0.075-0.072-0.181-0.186-0.321-0.344-0.028-0.014-0.122-0.111-0.282-0.29-0.047-0.079-0.107-0.204-0.181-0.376l-0.08-0.258c-7e-3 -0.044-0.017-0.154-0.03-0.333-7e-3 -0.123 0.017-0.227 0.07-0.312 0.147-0.222 0.381-0.37 0.703-0.441 0.268-0.057 0.543-0.043 0.824 0.043 0.133 0.071 0.21 0.158 0.231 0.258 0.08 0.114 0.18 0.178 0.301 0.194 0.147-0.051 0.268-0.14 0.361-0.27-0.02-0.035-0.034-0.096-0.04-0.182-0.034-0.057-0.09-0.147-0.171-0.269-0.1-0.042-0.291-0.096-0.572-0.161-0.04-7e-3 -0.144-0.047-0.311-0.118-0.094-7e-3 -0.218-0.018-0.371-0.033-0.014-6e-3 -0.048 4e-3 -0.101 0.033-0.121 0.021-0.298 0.05-0.533 0.086-0.187 0.093-0.371 0.204-0.552 0.333-0.08 0.108-0.181 0.311-0.301 0.612-0.027 0.273-0.013 0.489 0.04 0.646 0 0.036 0.034 0.14 0.1 0.312 0.02 0.035 0.054 0.093 0.101 0.172 7e-3 0.064 0.044 0.15 0.111 0.257 0.046 0.079 0.096 0.162 0.15 0.248 0.047 0.014 0.084 0.046 0.111 0.097l0.029 0.053c0.061 0.079 0.118 0.129 0.171 0.151 0.013 0.028 0.044 0.061 0.091 0.096l0.03 0.022c0.027 0.015 0.05 0.043 0.07 0.086 0.067 0.037 0.164 0.094 0.291 0.173 0.034-0.03 0.068-0.033 0.101-0.011 0.047 7e-3 0.107 0.035 0.181 0.085 0.167 7e-3 0.415-0.014 0.743-0.064 0.026-0.014 0.066-0.029 0.12-0.043-0.027 0.101-0.077 0.251-0.15 0.451-0.108 0.294-0.278 0.52-0.512 0.677-0.114 0.079-0.218 0.104-0.311 0.076-0.034-7e-3 -0.121-0.025-0.262-0.054-0.087-0.058-0.176-0.118-0.266-0.183-0.091-0.064-0.153-0.139-0.186-0.225-0.04-0.029-0.1-0.068-0.181-0.118l-0.15-0.194c-0.047-0.014-0.108 0.021-0.181 0.108-0.06 0.136-0.027 0.293 0.1 0.473 0.087 0.121 0.231 0.25 0.432 0.386 0.067 0.059 0.176 0.11 0.326 0.157 0.151 0.046 0.253 0.084 0.307 0.112 0.355 0 0.656-0.118 0.903-0.355 0.068-0.079 0.168-0.233 0.302-0.462 0.066-0.158 0.184-0.398 0.351-0.721-6e-3 -0.035 0.027-0.168 0.101-0.397 0.013-0.05 0.024-0.097 0.03-0.14 0.013-0.093 0.074-0.233 0.181-0.419 0-0.15 7e-3 -0.208 0.02-0.172 7e-3 -0.036 0.034-0.101 0.08-0.193 0.047-0.094 0.067-0.172 0.06-0.237 0.027-0.143 0.078-0.351 0.152-0.623 6e-3 -0.108 0.043-0.255 0.11-0.441 0.013-0.037 0.02-0.101 0.02-0.194 6e-3 -0.014 0.04-0.048 0.1-0.102s0.09-0.116 0.09-0.188c-0.04-7e-3 -0.073-0.022-0.1-0.043" clip-path="url(#clipPath79)"/>
  <path transform="matrix(1.3333 0 0 -1.3333 71.044 107.31)" d="m0 0h0.02c0.014 0 0.03 0.011 0.05 0.032 0.014 0.058 0 0.115-0.04 0.172l-0.03 0.043-0.05 0.366c-7e-3 0.043 0.067 0.104 0.221 0.183 0.027-7e-3 0.077-0.075 0.15-0.204v-0.033c0.054-0.1 0.124-0.25 0.211-0.452 0-0.021 0.017-0.146 0.051-0.375 6e-3 -0.043 6e-3 -0.086 0-0.129 0.02-0.086 0.086-0.205 0.2-0.355l0.031 0.011c0.033 0.014 0.053 0.05 0.06 0.107 0.02 0.323 0.177 0.662 0.472 1.022 0.134 0.171 0.274 0.28 0.422 0.322 0.04 0.014 0.084 0.014 0.13 0h0.05c0.074 0.029 0.181 0.029 0.321 0 0.161-0.036 0.272-0.05 0.332-0.042 0.1-0.036 0.244-0.093 0.432-0.171 0.02 0 0.044-0.012 0.071-0.033l0.02-0.021c0.046 0 0.14-0.071 0.281-0.214 0.06-0.092 0.12-0.145 0.181-0.16 0.066-0.086 0.144-0.245 0.23-0.48 0.014-0.057 0.043-0.139 0.09-0.246 0-0.064-0.053-0.113-0.16-0.149-0.047-0.014-0.124 2e-3 -0.231 0.048-0.107 0.047-0.18 0.071-0.221 0.071l0.01 0.01c7e-3 0.043-0.025 0.113-0.095 0.21-0.07 0.096-0.202 0.223-0.397 0.381-0.027 0.036-0.147 0.104-0.361 0.205-0.248-8e-3 -0.409-0.019-0.483-0.033-0.247-0.05-0.482-0.301-0.703-0.752-0.047-0.244-0.07-0.445-0.07-0.602 0-0.101 0.01-0.183 0.03-0.248-0.02-0.057-0.03-0.139-0.03-0.247 0-0.057 3e-3 -0.126 0.01-0.204 0.027-0.021 0.04-0.051 0.04-0.086v-0.043c0-0.05 7e-3 -0.104 0.02-0.161 6e-3 -0.015 0-0.032-0.02-0.054l-0.02-0.032c-7e-3 -0.108 0.02-0.266 0.081-0.473 0.013-0.144 0.02-0.363 0.02-0.656 0.013-0.108 0.06-0.248 0.14-0.419-0.013-0.065-0.064-0.154-0.15-0.269l-0.051-0.021c-0.047-0.072-0.134-0.147-0.261-0.227l-0.06-0.01c-0.081 0.043-0.177 0.115-0.291 0.215-7e-3 0.158 0.01 0.369 0.05 0.634 0.013 0.086 7e-3 0.2-0.02 0.344-0.027 0.128-0.027 0.23 0 0.301 0.013 0.043 3e-3 0.079-0.03 0.108l-0.021 0.022c0-8e-3 -0.027 0.203-0.08 0.633-0.013 0.108-0.02 0.219-0.02 0.333-0.033 0.208-0.093 0.517-0.18 0.926-0.02 0.064-0.081 0.207-0.181 0.429-0.034 0.108-0.091 0.266-0.171 0.473" clip-path="url(#clipPath81)"/>
  <path transform="matrix(1.3333 0 0 -1.3333 83.846 112.72)" d="m0 0-0.03-0.054c-0.068-0.115-0.155-0.176-0.262-0.182h-0.07c-0.053-8e-3 -0.104 0.014-0.151 0.064l-0.03 0.032c-0.033 0.022-0.074 0.033-0.12 0.033 0 0.1-0.021 0.247-0.061 0.44 0.014 0.172-0.013 0.38-0.08 0.623-0.094 0.337-0.147 0.535-0.16 0.592-0.014 0.057-0.044 0.197-0.091 0.419 0.02 0.086 0.02 0.197 0 0.334-0.027 0.172-0.037 0.289-0.03 0.354-0.04 0.122-0.067 0.309-0.08 0.559-0.027 0.187-0.041 0.484-0.041 0.893 0 0.107 0.014 0.268 0.041 0.484-7e-3 0.286-7e-3 0.451 0 0.494-0.02 0.072-0.023 0.157-0.01 0.258 0.02 0.129 0.027 0.22 0.02 0.274-7e-3 0.053 0 0.21 0.02 0.468 0 0.064 0.01 0.179 0.03 0.345 0.013 0.142 0.02 0.253 0.02 0.333 0 0.235 7e-3 0.372 0.02 0.408 0.013 0.064 0.017 0.168 0.01 0.311 0.02 0.072 0.024 0.173 0.011 0.302 0.019 0.086 0.076 0.211 0.17 0.376 0.047 0.028 0.097 0.043 0.15 0.043 0.054 0 0.118-0.019 0.191-0.054 0.02-0.058 0.031-0.115 0.031-0.172 0-0.079-0.017-0.161-0.051-0.248-6e-3 -0.093-0.029-0.294-0.07-0.601-0.034-0.252-0.05-0.456-0.05-0.613-7e-3 -0.101-0.027-0.419-0.06-0.957 0.02-0.101 0.017-0.279-0.011-0.538-0.02-0.229-0.02-0.408 0-0.537 0.02-0.114 0.034-0.312 0.041-0.591 6e-3 -0.058 0.033-0.327 0.08-0.806 0.021-0.144 0.047-0.402 0.08-0.775 0.014-0.143 0.067-0.322 0.161-0.537-7e-3 -0.065 0.017-0.169 0.07-0.312 0 0.022 0.034-0.179 0.101-0.602 0.087-0.13 0.126-0.255 0.12-0.377 0.027-0.064 0.071-0.157 0.131-0.278 0.013-0.065 0-0.134-0.04-0.205" clip-path="url(#clipPath83)"/>
  <path transform="matrix(1.3333 0 0 -1.3333 87.125 103.32)" d="m0 0c-0.014-0.022-0.045-0.155-0.091-0.399-0.069-0.339-0.099-0.541-0.092-0.606-0.075-0.202-0.129-0.386-0.163-0.551-0.014-0.022-0.051-0.032-0.112-0.032h-0.051l-0.101 0.075c-0.049 0.035-0.072 0.089-0.072 0.16 0 0.037 0.01 0.076 0.03 0.119-0.027 0.057-0.037 0.11-0.03 0.162 8e-3 0.057 0.029 0.168 0.062 0.333-8e-3 0.107 5e-3 0.251 0.038 0.43-0.013 0.093-0.046 0.229-0.1 0.409 0.08 0.285 0.174 0.429 0.281 0.429 0.241 0 0.375-0.075 0.402-0.227 0.019-0.021 0.03-0.05 0.03-0.086-0.014-0.159-0.024-0.231-0.031-0.216" clip-path="url(#clipPath85)"/>
  <path transform="matrix(1.3333 0 0 -1.3333 91.719 105.22)" d="m0 0c-0.014-0.021-0.03-0.036-0.05-0.043-0.328-0.179-0.556-0.319-0.683-0.419-0.074-0.036-0.181-0.115-0.322-0.237-0.08-0.093-0.157-0.129-0.231-0.108-0.073 0.036-0.1 0.098-0.08 0.183 0.04 0.158 0.064 0.233 0.07 0.227 0.221 0.193 0.385 0.343 0.493 0.451 0.134 0.1 0.214 0.218 0.241 0.355 0.073 0.114 0.13 0.172 0.17 0.172 0.067 0.05 0.135 0.057 0.201 0.021 0.167-0.086 0.251-0.204 0.251-0.355 0-0.071-0.02-0.154-0.06-0.247m0.382-1.666c-0.014 0.042-0.054 0.067-0.121 0.075-0.067 7e-3 -0.1 0.057-0.1 0.151 0 0.049-0.051 0.074-0.151 0.074-0.034 0-0.087-8e-3 -0.161-0.026s-0.127-0.027-0.16-0.027c-0.101 0-0.191-0.029-0.272-0.086-0.127-0.072-0.314-0.161-0.562-0.269-0.141-0.093-0.331-0.273-0.573-0.537-0.04-0.015-0.083-0.055-0.13-0.118-0.047-0.093-0.093-0.189-0.141-0.285-0.046-0.097-0.07-0.192-0.07-0.285 0.087 0.014 0.138 0.021 0.151 0.021 0.033 0 0.076-0.018 0.131-0.054 0.053-0.036 0.096-0.054 0.129-0.054h0.122c0.013 0.015 0.026 0.022 0.04 0.022 0.013 0 0.026-9e-3 0.04-0.027 0.013-0.018 0.026-0.027 0.04-0.027 0.026 0 0.064 0.016 0.11 0.049 0.047 0.032 0.084 0.048 0.111 0.048s0.05-7e-3 0.07-0.021c0.188 0.071 0.419 0.172 0.693 0.301 0.288 0.193 0.442 0.297 0.462 0.312 0.147 0.121 0.268 0.268 0.362 0.44-0.014 0.294-0.02 0.401-0.02 0.323m1.667-3.086-0.01-0.043c6e-3 -0.014 0.01-0.032 0.01-0.054 0-0.043-0.013-0.086-0.04-0.129l-0.021-0.032c-0.033-0.057-0.067-0.118-0.1-0.182-0.027-0.029-0.094-0.051-0.201-0.065-0.04 0-0.104 0.014-0.19 0.043-0.135-0.043-0.329-0.129-0.583-0.258-0.107-0.014-0.258-0.065-0.453-0.15-0.026 0.021-0.053 0.032-0.079 0.032-0.021 0-0.063-0.013-0.126-0.038-0.064-0.025-0.115-0.03-0.155-0.016-0.101-0.043-0.258-0.064-0.472-0.064-0.034 0-0.086 6e-3 -0.156 0.021-0.071 0.015-0.122 0.022-0.156 0.022-0.06 0.014-0.15 0.043-0.271 0.086-0.034-7e-3 -0.165 0.017-0.392 0.075-0.053 7e-3 -0.129 0.05-0.226 0.129-0.097 0.078-0.212 0.157-0.347 0.236h-9e-3c-0.027 0-0.051 0.032-0.071 0.097-0.24 0.222-0.424 0.556-0.551 1-8e-3 0.151-0.017 0.405-0.031 0.763 0 0.093 0.027 0.255 0.08 0.485 0.021 0.056 0.044 0.142 0.07 0.257 0.095 0.171 0.235 0.398 0.423 0.677 0.16 0.144 0.414 0.348 0.762 0.613 0.054 0.079 0.177 0.162 0.367 0.248 0.191 0.086 0.337 0.128 0.438 0.128h0.07c0.019 0 0.04 0.017 0.06 0.049 0.167 0.032 0.281 0.048 0.341 0.048 0.08 0 0.151-0.018 0.211-0.054 0.067-7e-3 0.151-0.059 0.251-0.155 0.1-0.098 0.171-0.153 0.211-0.167 0.047-0.194 0.094-0.294 0.14-0.301l0.021-0.011c0.013-0.015 0.02-0.035 0.02-0.065 0-0.015-3e-3 -0.032-0.01-0.054v-0.043c0.02-0.042 0.047-0.107 0.08-0.192 7e-3 -0.044 0.01-0.091 0.01-0.14 0-0.065-0.017-0.162-0.05-0.291-0.04-0.1-0.117-0.236-0.231-0.408-0.061-0.072-0.181-0.172-0.362-0.301-0.107-0.08-0.257-0.162-0.451-0.247-0.108-0.051-0.275-0.137-0.503-0.259-0.114-0.064-0.335-0.132-0.663-0.204l-0.19-0.042c-0.027-0.015-0.054-0.022-0.081-0.022-0.02 0-0.048 3e-3 -0.085 0.01-0.037 8e-3 -0.066 0.012-0.085 0.012h-0.021c-0.039-0.03-0.079-0.044-0.12-0.044-0.02 0-0.05 5e-3 -0.09 0.016s-0.071 0.016-0.091 0.016c-0.02-7e-3 -0.03-0.025-0.03-0.053 0.02-0.101 0.06-0.248 0.121-0.441 0.147-0.344 0.404-0.588 0.773-0.731 0.026-0.036 0.156-0.083 0.392-0.14 0.234-0.057 0.384-0.086 0.451-0.086 0.054 0 0.108 7e-3 0.161 0.021 0.014 0.022 0.034 0.033 0.061 0.033 0.013 0 0.033-4e-3 0.06-0.011 0.026-7e-3 0.046-0.011 0.06-0.011 0.047 0 0.119 0.013 0.216 0.038 0.096 0.025 0.168 0.038 0.215 0.038 0.148 0 0.248 0.032 0.303 0.096 0.106 8e-3 0.263 0.082 0.471 0.225 0.073 0.051 0.157 0.184 0.251 0.399 0.053 0.022 0.104 0.032 0.151 0.032 0.073 0 0.15-0.022 0.231-0.064l0.231-0.312c0-0.015-3e-3 -0.036-0.01-0.065" clip-path="url(#clipPath87)"/>
  <path transform="matrix(1.3333 0 0 -1.3333 98.012 110.72)" d="m0 0c-7e-3 0.057-0.027 0.147-0.061 0.269 0 0.043-4e-3 0.107-0.014 0.193s-0.016 0.149-0.016 0.188c0 0.04-0.011 0.106-0.033 0.2-0.025 0.092-0.03 0.165-0.017 0.214-0.012 0.323-0.017 0.778-0.017 1.366 0 0.028-4e-3 0.057-0.013 0.086v0.107c0 0.036-0.03 0.054-0.091 0.054-0.06 0-0.14-0.034-0.241-0.102-0.101-0.069-0.175-0.106-0.222-0.113-0.41-0.273-0.678-0.495-0.806-0.667-0.049-0.042-0.121-0.104-0.222-0.183-0.168-0.214-0.326-0.389-0.474-0.526-0.087-0.079-0.178-0.197-0.272-0.355-0.061-0.101-0.165-0.276-0.313-0.526-0.014-0.058-0.02-0.108-0.02-0.151 0-0.079 0.09-0.24 0.271-0.483 0.041-0.029 0.14-0.109 0.302-0.238 0.032-0.028 0.234-0.103 0.601-0.226 0.041-0.042 0.116-0.074 0.226-0.096 0.111-0.022 0.184-0.039 0.217-0.053 0.02 6e-3 0.039 0.01 0.061 0.01 0.026 0 0.073-7e-3 0.14-0.022 0.067-7e-3 0.118-7e-3 0.15 0 0.067-0.028 0.138-0.043 0.211-0.043 0.034 0 0.102 0.015 0.201 0.043 0.101 0.029 0.175 0.036 0.221 0.022 0.047 0.036 0.098 0.125 0.151 0.268 0.053 0.144 0.103 0.237 0.151 0.281l9e-3 0.043c0 0.036-0.02 0.107-0.06 0.215-0.034 0.085-0.04 0.161-0.02 0.225m-2.692 1.076h-0.019l-0.021 0.042c0.047 0.051 0.114 0.129 0.201 0.237 0.041 0.021 0.084 0.068 0.131 0.14l0.021 0.043c0.032 0.057 0.076 0.1 0.13 0.129l0.03-0.033v0.065c0.074 0.136 0.191 0.226 0.352 0.268 0.033 0.094 0.115 0.198 0.245 0.312 0.131 0.115 0.212 0.201 0.246 0.259 0.113 0.085 0.241 0.207 0.381 0.365 0.107 0.072 0.22 0.143 0.337 0.215 0.118 0.072 0.237 0.114 0.357 0.129 0.033 0.022 0.077 0.061 0.13 0.119-0.016 0.171-0.024 0.376-0.024 0.612 0 0.129-8e-3 0.229-0.024 0.301-8e-3 7e-3 -0.012 0.021-0.012 0.043 0 7e-3 7e-3 0.014 0.021 0.021l0.02 0.033c0.013 0.014 0.019 0.028 0.019 0.043 0 0.028-0.01 0.07-0.03 0.124-0.02 0.053-0.03 0.095-0.03 0.123v1.053c0 0.029-5e-3 0.075-0.015 0.14-0.01 0.064-0.016 0.115-0.016 0.151 0 0.13 0.064 0.215 0.193 0.258 0.079 0 0.17-0.025 0.27-0.075 0.087-0.846 0.136-1.548 0.151-2.108 6e-3 -0.279 0.01-0.537 0.01-0.774 0-0.057 0.013-0.096 0.039-0.118l0.091-0.043c-7e-3 -0.057-3e-3 -0.139 0.01-0.247-6e-3 -0.022-0.01-0.043-0.01-0.065 0-0.028 0.037-0.143 0.111-0.343 6e-3 -0.029 0.01-0.062 0.01-0.097 0-0.022-5e-3 -0.053-0.016-0.092-0.01-0.04-0.014-0.07-0.014-0.091 0-0.036 9e-3 -0.072 0.03-0.108v-0.053c0-0.065 6e-3 -0.165 0.02-0.301 0.013-0.137 0.019-0.236 0.019-0.301 0-0.022 0.015-0.043 0.041-0.065l0.02-0.032 0.01-0.021c0-0.022-9e-3 -0.051-0.025-0.087-0.017-0.036-0.025-0.061-0.025-0.075 6e-3 -0.157 0.03-0.437 0.07-0.839 0.027-0.114 0.057-0.293 0.091-0.537-7e-3 -0.021-0.011-0.04-0.011-0.054 0-0.021 0.011-0.071 0.03-0.15 0.014-0.058 0.014-0.112 0-0.162 0.027-0.014 0.063-0.037 0.107-0.07 0.043-0.032 0.064-0.073 0.064-0.124 0 0.022-9e-3 -0.039-0.03-0.182-0.019-0.014-0.036-0.036-0.05-0.065l-0.019-0.021c-0.015-0.029-0.045-0.068-0.091-0.118-0.128 7e-3 -0.254-0.039-0.383-0.14-0.093-0.079-0.2-0.159-0.32-0.241-0.121-0.083-0.245-0.124-0.371-0.124h-0.402c-0.295 0-0.63 0.047-1.005 0.14-0.428 0.107-0.732 0.236-0.914 0.386-0.154 0.036-0.265 0.122-0.331 0.258-7e-3 8e-3 -0.02 0.011-0.041 0.011h-0.03c-0.06 0-0.114 0.054-0.16 0.161-0.034 0.072-0.071 0.147-0.111 0.226 0 0.065-0.018 0.149-0.055 0.253s-0.055 0.181-0.055 0.231c0 0.121 0.064 0.298 0.191 0.527 0.067 0.092 0.167 0.225 0.301 0.398 0.014 0.014 0.016 0.039 0.01 0.075 0.027 0.014 0.046 0.021 0.06 0.021l0.02-0.011h0.011c0.012 7e-3 0.029 0.018 0.049 0.033z" clip-path="url(#clipPath89)"/>
  <path transform="matrix(1.3333 0 0 -1.3333 105.18 108.72)" d="m0 0c0-0.086-8e-3 -0.181-0.025-0.285s-0.032-0.263-0.045-0.479c-0.015-0.064-0.065-0.197-0.152-0.397-0.04-0.101-0.056-0.168-0.049-0.204-0.034-0.1-0.114-0.215-0.241-0.345-0.128-0.243-0.423-0.516-0.884-0.817-0.047-0.028-0.131-0.082-0.252-0.161-0.308-0.186-0.649-0.29-1.024-0.311-0.033-0.022-0.076-0.033-0.13-0.033-0.382 0-0.686 0.215-0.914 0.645-0.019 0.036-0.057 0.1-0.11 0.193l-0.011 0.022c-0.053 0.072-0.129 0.262-0.231 0.571-0.034 0.1-0.07 0.222-0.11 0.365 7e-3 0.028-4e-3 0.096-0.03 0.204v0.322c7e-3 0.064 0.017 0.165 0.03 0.301 0 0.036 0.011 0.122 0.03 0.258 0.021 0.115 0.023 0.201 0.01 0.258-7e-3 0.087 3e-3 0.219 0.031 0.398 0.02 0.229 0.11 0.362 0.27 0.398 0.242 0 0.379-0.118 0.413-0.355 5e-3 -0.049-1e-3 -0.2-0.022-0.451-0.026-0.05-0.085-0.1-0.173-0.151-0.035-0.035-0.058-0.178-0.072-0.429l-0.028-0.291c0.035-0.043 0.053-0.1 0.053-0.172v-0.182c0.053-0.416 0.21-0.792 0.471-1.13 0.053-0.057 0.15-0.125 0.29-0.204 0.067-0.014 0.141-0.022 0.221-0.022 0.467 0 0.922 0.189 1.366 0.565 0.444 0.377 0.716 0.804 0.816 1.284 0 0.057 0.014 0.165 0.04 0.323 0.026 0.122 0.029 0.254 0.01 0.398-0.04 0.28-0.093 0.427-0.16 0.441-0.054-0.014-0.137 0.014-0.251 0.085-0.055 0.014-0.1 0.072-0.136 0.173-0.037 0.1-0.065 0.157-0.086 0.172 7e-3 0.028 0.03 0.089 0.07 0.183 0.127 0.128 0.245 0.2 0.353 0.215 0.167 0.028 0.264-0.012 0.29-0.119 0.067-0.071 0.135-0.183 0.201-0.333 0.08-0.179 0.135-0.294 0.161-0.344 0.013-0.215 0.016-0.401 0.01-0.559" clip-path="url(#clipPath91)"/>
  <path transform="matrix(1.3333 0 0 -1.3333 111.16 111.87)" d="m0 0c-0.108-7e-3 -0.235-0.064-0.383-0.172-0.181-0.137-0.3-0.215-0.36-0.236-0.128-0.05-0.312-0.136-0.554-0.259-0.059 0-0.156-0.017-0.29-0.053-0.054-0.014-0.362-0.033-0.924-0.054-7e-3 -7e-3 -0.013-0.011-0.019-0.011-0.014 0-0.028 4e-3 -0.041 0.011-0.148 0-0.355 0.054-0.623 0.162-0.054 0-0.14 0.03-0.256 0.091-0.117 0.061-0.213 0.087-0.286 0.08-0.395 0.315-0.667 0.645-0.814 0.989 0-0.043-0.04 0.111-0.12 0.462v0.506c0 0.05 5e-3 0.127 0.015 0.231s0.015 0.181 0.015 0.231c0 0.029 0.013 0.05 0.04 0.064h0.01l0.011 0.012c0.06 0.15 0.127 0.325 0.201 0.526 0.04 0.079 0.124 0.211 0.252 0.398 0.154 0.215 0.399 0.473 0.735 0.774 0.027 7e-3 0.051 0.021 0.071 0.043l0.03 0.032c0.115 0.079 0.303 0.176 0.565 0.291 0.074 0.014 0.181 0.049 0.323 0.108 0.106-8e-3 0.252-0.08 0.432-0.216 0.034-0.093 0.081-0.218 0.142-0.377l0.01-0.011v-0.02c0-0.016-6e-3 -0.033-0.021-0.054l-9e-3 -0.022c0-7e-3 -4e-3 -0.015-0.01-0.021v-0.011c0-7e-3 0.01-0.015 0.03-0.021l0.01-0.012c0.013-7e-3 0.02-0.017 0.02-0.032 0-0.021-7e-3 -0.035-0.02-0.043 6e-3 -0.021 9e-3 -0.043 9e-3 -0.064 0-0.022-3e-3 -0.049-9e-3 -0.081s-0.01-0.059-0.01-0.08c0-0.037 0.014-0.072 0.04-0.108 0-0.035-0.015-0.075-0.045-0.118s-0.045-0.075-0.045-0.097c-0.027-0.035-0.048-0.112-0.061-0.231-0.013-0.118-0.037-0.199-0.071-0.242-0.22-0.264-0.428-0.419-0.622-0.463-0.026 0.022-0.039 0.047-0.039 0.076 0 0.071 0.036 0.18 0.109 0.323 0.075 0.143 0.101 0.265 0.082 0.366 0.019 0.013 0.06 0.096 0.121 0.246 0.012 7e-3 0.019 0.018 0.019 0.032 0 0.022-7e-3 0.051-0.019 0.087 0.039 0.107 0.059 0.204 0.059 0.29 0 0.078-0.014 0.161-0.04 0.247-0.015 0.014-0.06 0.043-0.14 0.086-0.068-7e-3 -0.209-0.065-0.422-0.172-0.47-0.236-0.848-0.663-1.136-1.279-0.054-0.05-0.09-0.14-0.111-0.268-0.033-0.173-0.057-0.277-0.07-0.313s-0.019-0.079-0.019-0.129c-7e-3 -0.451 0.119-0.831 0.381-1.14 0.06-0.071 0.191-0.183 0.39-0.333 0.129-0.042 0.318-0.122 0.565-0.236 0.147-0.029 0.368-0.057 0.663-0.086 0.12 0 0.233 0.022 0.341 0.064 0.02-7e-3 0.04-0.01 0.059-0.01 0.047 0.014 0.158 0.035 0.333 0.064 0.06 7e-3 0.156 0.054 0.29 0.14h0.04c0.028-7e-3 0.148 0.068 0.362 0.226 0.02 0.014 0.026 0.043 0.02 0.086v0.043c0.073 0.122 0.198 0.24 0.371 0.355 0.021 0 0.055 8e-3 0.101 0.026s0.084 0.027 0.11 0.027c0.208 0 0.352-0.142 0.433-0.43-7e-3 -0.064-0.081-0.161-0.221-0.29" clip-path="url(#clipPath93)"/>
  <path transform="matrix(1.3333 0 0 -1.3333 115.16 112.82)" d="m0 0c-0.047-0.05-0.134-0.111-0.262-0.183-0.146-0.028-0.297 0.04-0.451 0.204-0.013 0.029-0.02 0.062-0.02 0.098 0 0.021 9e-3 0.062 0.025 0.123 0.017 0.061 0.022 0.105 0.015 0.134-0.013 0.05-0.04 0.133-0.08 0.247-7e-3 0.158-0.05 0.388-0.13 0.689-8e-3 0.129-0.038 0.261-0.091 0.398-7e-3 0.036-0.031 0.099-0.07 0.193-0.034 0.072-0.05 0.136-0.05 0.193-0.034 0.079-0.112 0.19-0.232 0.333-0.033 0.022-0.143 0.093-0.331 0.216-0.262 0.043-0.402 0.06-0.422 0.053-0.046 0.014-0.103 0-0.17-0.043-0.088-0.05-0.147-0.079-0.181-0.086-0.073-0.072-0.181-0.186-0.321-0.344-0.027-0.014-0.122-0.111-0.282-0.29-0.048-0.079-0.107-0.204-0.18-0.376l-0.081-0.258c-6e-3 -0.044-0.017-0.154-0.03-0.333-7e-3 -0.123 0.016-0.227 0.069-0.312 0.148-0.222 0.382-0.37 0.705-0.441 0.267-0.057 0.542-0.043 0.824 0.043 0.133 0.071 0.21 0.158 0.23 0.258 0.08 0.114 0.18 0.178 0.301 0.194 0.148-0.051 0.268-0.14 0.361-0.27-0.019-0.035-0.033-0.096-0.039-0.182-0.034-0.057-0.09-0.147-0.171-0.269-0.101-0.042-0.291-0.096-0.572-0.161-0.041-7e-3 -0.144-0.047-0.311-0.118-0.094-7e-3 -0.219-0.018-0.371-0.033-0.015-6e-3 -0.049 4e-3 -0.102 0.033-0.12 0.021-0.298 0.05-0.532 0.086-0.188 0.093-0.372 0.204-0.554 0.333-0.08 0.108-0.179 0.311-0.3 0.612-0.027 0.273-0.013 0.489 0.04 0.646 0 0.036 0.034 0.14 0.101 0.312 0.019 0.035 0.053 0.093 0.099 0.172 7e-3 0.064 0.045 0.15 0.111 0.257 0.048 0.079 0.097 0.162 0.15 0.248 0.047 0.014 0.085 0.046 0.111 0.097l0.03 0.053c0.06 0.079 0.117 0.129 0.171 0.151 0.013 0.028 0.044 0.061 0.091 0.096l0.03 0.022c0.027 0.015 0.05 0.043 0.07 0.086 0.068 0.037 0.165 0.094 0.292 0.173 0.033-0.03 0.067-0.033 0.101-0.011 0.046 7e-3 0.106 0.035 0.18 0.085 0.168 7e-3 0.415-0.014 0.744-0.064 0.026-0.014 0.066-0.029 0.119-0.043-0.027 0.101-0.076 0.251-0.15 0.451-0.108 0.294-0.278 0.52-0.512 0.677-0.114 0.079-0.218 0.104-0.311 0.076-0.034-7e-3 -0.121-0.025-0.262-0.054-0.087-0.058-0.174-0.118-0.265-0.183-0.092-0.064-0.155-0.139-0.187-0.225-0.04-0.029-0.1-0.068-0.18-0.118l-0.152-0.194c-0.046-0.014-0.106 0.021-0.181 0.108-0.06 0.136-0.027 0.293 0.101 0.473 0.087 0.121 0.232 0.25 0.433 0.386 0.066 0.059 0.175 0.11 0.327 0.157 0.15 0.046 0.252 0.084 0.305 0.112 0.355 0 0.657-0.118 0.904-0.355 0.066-0.079 0.168-0.233 0.301-0.462 0.067-0.158 0.185-0.398 0.352-0.721-8e-3 -0.035 0.027-0.168 0.1-0.397 0.013-0.05 0.023-0.097 0.03-0.14 0.014-0.093 0.074-0.233 0.181-0.419 0-0.15 7e-3 -0.208 0.019-0.172 7e-3 -0.036 0.034-0.101 0.08-0.193 0.048-0.094 0.068-0.172 0.062-0.237 0.025-0.143 0.077-0.351 0.15-0.623 7e-3 -0.108 0.043-0.255 0.111-0.441 0.013-0.037 0.02-0.101 0.02-0.194 6e-3 -0.014 0.04-0.048 0.1-0.102s0.09-0.116 0.09-0.188c-0.041-7e-3 -0.074-0.022-0.1-0.043" clip-path="url(#clipPath95)"/>
  <path transform="matrix(1.3333 0 0 -1.3333 119.03 112.1)" d="m0 0-0.02 0.01c-0.059 0.179-0.089 0.28-0.089 0.301 7e-3 0.036 0.016 0.075 0.03 0.119 0.059 0.057 0.137 0.082 0.23 0.075 0.095-8e-3 0.152-4e-3 0.171 0.011 0.054 0 0.091-0.025 0.111-0.075l0.01-0.022c0.033-0.02 0.086-0.045 0.161-0.074 0.052-0.028 0.093-0.08 0.12-0.159 0.013-0.036 0.047-0.089 0.099-0.159v-0.086c0-0.07-0.083-0.192-0.25-0.361-0.134-0.05-0.211-0.075-0.231-0.075h-0.061c-0.033-7e-3 -0.095-0.032-0.19-0.075-0.067-0.029-0.137-0.043-0.21-0.043h-0.021c-0.06 0-0.144-0.018-0.251-0.054-0.034 7e-3 -0.056 0.012-0.07 0.018l-0.059 0.027c-0.014 6e-3 -0.025 9e-3 -0.031 9e-3h-0.06c-0.114 7e-3 -0.412 0.136-0.894 0.385-0.094 0.051-0.231 0.176-0.412 0.375-0.153 0.143-0.309 0.353-0.461 0.632-0.156 0.279-0.239 0.514-0.252 0.707-0.021 0.05-0.06 0.267-0.121 0.654-0.181-0.016-0.301-0.048-0.36-0.098-0.048 0-0.095-0.018-0.142-0.053l-0.04-0.044c-0.054-0.043-0.121-0.068-0.201-0.075-0.013 0.022-0.071 0.054-0.17 0.097 0-0.022-0.01-0.068-0.03-0.14-0.101 0.144-0.149 0.251-0.141 0.323v0.021c-0.014 0.029-0.02 0.061-0.02 0.097v0.055l9e-3 0.043c7e-3 0.027 0.011 0.056 0.011 0.085 0.046 0.1 0.106 0.175 0.181 0.226 0.012 0.028 0.043 0.046 0.089 0.054 0.014 7e-3 0.034 0.021 0.061 0.043 0.147-0.029 0.298-0.047 0.452-0.054 0.114-7e-3 0.207-4e-3 0.281 0.011 6e-3 0.236 0.02 0.555 0.04 0.956 7e-3 0.273 0.057 0.674 0.151 1.204-7e-3 0.057 4e-3 0.124 0.03 0.199 0.027 0.075 0.04 0.127 0.04 0.156 0 0.021-4e-3 0.043-0.01 0.064 0.027 0.122 0.145 0.574 0.352 1.355 7e-3 0.186 0.037 0.458 0.09 0.817 0.034 0.129 0.144 0.191 0.332 0.183 0.134 0 0.225-0.093 0.271-0.279-7e-3 -0.014-7e-3 -0.04 0-0.076l0.01-0.043c7e-3 -0.014 0.01-0.028 0.01-0.042-0.033-0.087-0.088-0.216-0.16-0.388l0.011-0.053c-0.069-0.202-0.156-0.506-0.262-0.914-0.015-0.129-0.068-0.319-0.161-0.57 0-0.015-3e-3 -0.025-0.01-0.033l-0.011-0.042c-7e-3 -0.029-0.01-0.051-0.01-0.065v-0.021c0.014-0.022 0.021-0.043 0.021-0.065 0-0.029-0.014-0.061-0.041-0.097 8e-3 -0.064-2e-3 -0.157-0.03-0.279-0.027-0.122-0.039-0.211-0.039-0.269 0-0.057-0.012-0.141-0.036-0.252-0.023-0.112-0.035-0.196-0.035-0.253 0-0.029 3e-3 -0.064 0.011-0.108-0.034-0.122-0.055-0.398-0.061-0.827 0-0.051 3e-3 -0.104 0.01-0.162 0.032-7e-3 0.07-0.011 0.111-0.011 0.073-6e-3 0.179-6e-3 0.321 0h0.612c0.121 0 0.208 0.011 0.262 0.033 0.16 0.079 0.307 0.114 0.44 0.107 0.228-7e-3 0.342-0.132 0.342-0.376-7e-3 -0.041-0.013-0.111-0.019-0.208-0.068-0.09-0.145-0.136-0.232-0.136h-0.07c-0.067-0.022-0.138-0.032-0.211-0.032-0.068 6e-3 -0.188 0.017-0.361 0.032h-0.171c-0.047 7e-3 -0.392 7e-3 -1.034 0v-0.01c0-0.088 0.023-0.211 0.071-0.37 0.047-0.159 0.069-0.282 0.069-0.369 0.061-0.181 0.185-0.427 0.372-0.738 6e-3 -0.044 0.05-0.1 0.13-0.168 0.081-0.069 0.128-0.115 0.141-0.136 0.059-0.058 0.161-0.131 0.301-0.217 0.046-0.058 0.121-0.103 0.221-0.136 0.101-0.032 0.167-0.06 0.201-0.081 0.06 0 0.144-7e-3 0.25-0.021 0.108-0.015 0.186-0.022 0.232-0.022 0.154-8e-3 0.247 3e-3 0.28 0.032" clip-path="url(#clipPath97)"/>
  <path transform="matrix(1.3333 0 0 -1.3333 121.69 112.1)" d="m0 0c6e-3 -0.044-4e-3 -0.091-0.03-0.145-0.028-0.054-0.051-0.11-0.071-0.167-0.067-0.122-0.181-0.247-0.341-0.376-0.114-0.014-0.228 0.054-0.341 0.205-0.087 0.121-0.148 0.25-0.181 0.386-0.02 0.071-0.061 0.247-0.12 0.527v0.075c0 0.029-7e-3 0.072-0.021 0.129-0.014 0.058-0.022 0.1-0.022 0.13-6e-3 0.079-8e-3 0.174-8e-3 0.29v1.204c6e-3 0.029 0.027 0.297 0.06 0.806-9e-3 0.157-0.018 0.286-0.026 0.387-7e-3 0.1-0.013 0.168-0.015 0.204-2e-3 0.035-3e-3 0.039-3e-3 0.01-0.012 0.029-0.016 0.065-0.016 0.108-0.028 0.33 0.042 0.502 0.205 0.516 0.047 8e-3 0.136-0.021 0.266-0.086 0.048-0.057 0.074-0.128 0.081-0.215 8e-3 -0.057-1e-3 -0.14-0.024-0.247-0.025-0.108-0.036-0.183-0.036-0.226 7e-3 -0.071 0.027-0.132 0.06-0.183-0.039-0.122-0.06-0.272-0.06-0.451v-0.322c-5e-3 -0.101-0.018-0.248-0.04-0.441 0.027-0.029 0.04-0.061 0.04-0.097-7e-3 -0.08-7e-3 -0.201 0-0.365 0.023-0.273 0.042-0.463 0.06-0.57-7e-3 -0.05-7e-3 -0.111 0-0.183 0.013-0.15 0.042-0.298 0.088-0.441 0.071-0.201 0.149-0.298 0.232-0.29 0.014 0.029 0.046 0.061 0.098 0.096 0.013 0 0.043-0.041 0.093-0.124 0.047-0.081 0.072-0.13 0.072-0.144m-0.543 6.031c0.02-0.029 0.03-0.061 0.03-0.096 0-0.073-0.022-0.169-0.07-0.291-7e-3 -0.022-0.02-0.032-0.039-0.032-0.028-8e-3 -0.065 0-0.116 0.021-0.051 0.022-0.085 0.033-0.106 0.033-0.054-0.036-0.136-0.072-0.251-0.108-0.088 0-0.205 0.04-0.352 0.118 0-0.029-7e-3 0.032-0.02 0.183 0 0.035 7e-3 0.068 0.02 0.096 6e-3 0.086 0.055 0.178 0.145 0.274 0.091 0.098 0.143 0.155 0.156 0.173s0.035 0.027 0.062 0.027c0.141 0.014 0.257-0.039 0.351-0.161 0.121-0.158 0.184-0.237 0.19-0.237" clip-path="url(#clipPath99)"/>
  <path transform="matrix(1.3333 0 0 -1.3333 127.08 110.08)" d="m0 0v0.043c-6e-3 0.036-6e-3 0.079 0 0.129v0.129c0 0.057-3e-3 0.111-9e-3 0.161 0.027 0.05 0.039 0.1 0.039 0.15-0.026 0.079-0.053 0.195-0.08 0.346-0.046 0.121-0.183 0.271-0.411 0.451-0.033 6e-3 -0.116 0.042-0.252 0.107-0.106 0.043-0.197 0.061-0.27 0.054-0.053-0.015-0.078-0.022-0.07-0.022-0.034 0-0.086 0.014-0.156 0.043-0.071 0.029-0.122 0.043-0.156 0.043h-0.744c-0.234-7e-3 -0.391-0.029-0.471-0.064-0.054-0.015-0.135-0.047-0.241-0.097l-0.04 0.01c-0.021 0-0.134-0.032-0.342-0.096-0.054-0.057-0.134-0.129-0.241-0.215-0.187-0.458-0.282-0.767-0.282-0.925 0-0.043 8e-3 -0.136 0.021-0.279 0.014-0.108 0.017-0.197 0.01-0.269 0.047-0.1 0.136-0.243 0.271-0.429 0.081-0.087 0.194-0.158 0.341-0.217 0.187-0.071 0.306-0.124 0.351-0.16l0.041 0.022c0.127 0 0.35 0.012 0.666 0.037 0.32 0.025 0.423 0.041 0.309 0.048 0.073-7e-3 0.174 0.036 0.301 0.129 0.114 0 0.262 0.029 0.441 0.087 0.074 0.042 0.185 0.089 0.332 0.139 0.181 0.129 0.297 0.222 0.352 0.28 0.134 0.121 0.23 0.243 0.29 0.365m0.553 0.617c-7e-3 -8e-3 -0.023-0.146-0.05-0.418-0.041-0.45-0.215-0.818-0.523-1.104-0.126-0.057-0.297-0.176-0.511-0.354-0.035 0-0.095-0.018-0.182-0.053-0.086-0.036-0.16-0.047-0.221-0.032-0.219-0.151-0.572-0.23-1.054-0.237-0.027 0-0.097-0.032-0.211-0.096-0.147-7e-3 -0.362 0.014-0.643 0.064-0.034-7e-3 -0.063-0.01-0.091-0.01-0.099 0-0.22 0.039-0.36 0.118-0.187 0.114-0.302 0.179-0.342 0.193-0.087 0.079-0.211 0.212-0.371 0.399-0.054 0.093-0.121 0.261-0.201 0.504 7e-3 0.122-0.011 0.298-0.05 0.528 0.02 0.021 0.03 0.049 0.03 0.085v0.075c-6e-3 0.029-0.01 0.051-0.01 0.065 0 0.064 0.016 0.155 0.05 0.274s0.05 0.21 0.05 0.275-0.013 0.125-0.04 0.182c0.014 0.172 0.125 0.371 0.336 0.597 0.212 0.225 0.333 0.403 0.366 0.532 0.142 0.136 0.265 0.205 0.371 0.205 0.035 0 0.072-4e-3 0.112-0.012 0.02-0.093 0.053-0.222 0.1-0.386 0.013-8e-3 0.027-0.012 0.04-0.012 0.034 0 0.077 0.025 0.131 0.076 0.194 0.028 0.486 0.068 0.874 0.118 0.027-0.022 0.057-0.032 0.091-0.032 0.046 0.01 0.117 0.021 0.21 0.032 0.054 0 0.101-0.022 0.141-0.064l1.105-0.226c0.12-0.064 0.3-0.207 0.542-0.428 0.053-0.107 0.137-0.243 0.25-0.407v-0.129c-7e-3 -0.05-0.011-0.089-0.011-0.118 8e-3 -0.079 0.032-0.147 0.072-0.204" clip-path="url(#clipPath101)"/>
  <path transform="matrix(1.3333 0 0 -1.3333 133.2 113.07)" d="m0 0-0.231 0.064c-0.046 0.022-0.083 0.097-0.111 0.227-0.039 0.178-0.097 0.3-0.171 0.365-0.033 0.057-0.079 0.146-0.139 0.268-0.02 0.108-0.088 0.225-0.202 0.355-0.114 0.129-0.18 0.233-0.201 0.312-0.066 0.086-0.28 0.391-0.641 0.913-0.081 0.115-0.212 0.323-0.392 0.624-0.074 0.129-0.168 0.272-0.281 0.43-0.014 0.065-0.058 0.128-0.131 0.188-0.073 0.061-0.113 0.131-0.121 0.21-0.033 0.028-0.064 0.061-0.09 0.097l-0.019 0.043c-0.035 0.079-0.084 0.143-0.151 0.193-0.074 0.014-0.147-0.021-0.222-0.107-0.013-0.015-0.034-0.033-0.06-0.054-0.122-0.28-0.182-0.771-0.182-1.473v-1.042c0.029-0.129 0.04-0.262 0.04-0.399 0-0.136-9e-3 -0.272-0.03-0.408 0-0.165-0.02-0.262-0.061-0.29-0.032-0.058-0.048-0.111-0.048-0.162 6e-3 -0.021 0.012-0.06 0.019-0.118-0.013-0.021-0.073-0.064-0.18-0.128-0.034-0.015-0.06-0.033-0.081-0.054-0.087 0-0.207 0.014-0.362 0.043-6e-3 0.014-0.01 0.032-0.01 0.053v0.022l-9e-3 0.086c-0.014 0.086-0.031 0.283-0.05 0.591 6e-3 0.05 3e-3 0.115-0.011 0.193-0.013 0.065-0.013 0.111 0 0.14-7e-3 0.609-7e-3 0.983 0 1.118-0.033 0.157-0.046 0.333-0.039 0.527 0.01 0.114 0.023 0.312 0.039 0.592-0.046 0.064-0.059 0.153-0.039 0.269 0.013 0.186 0.013 0.322 0 0.408v-0.011c0-0.014 0.062 0.09 0.19 0.311 0.041-6e-3 0.076-0.01 0.102-0.01 7e-3 -7e-3 0.016-0.022 0.03-0.043 0.054-0.086 0.124-0.122 0.212-0.108 0.068 0.065 0.12 0.186 0.161 0.366 0.014 0.072 0.071 0.154 0.172 0.248l0.091 0.064c0.04 0.014 0.084 0.05 0.132 0.107l0.04 0.054c0.019 0.029 0.043 0.039 0.07 0.032 0.437-0.294 0.71-0.613 0.818-0.957 0.033-0.014 0.124-0.139 0.271-0.376 0.168-0.294 0.435-0.723 0.797-1.29 0.027-0.05 0.082-0.118 0.162-0.204 0.079-0.086 0.138-0.165 0.171-0.237 0.034-0.071 0.107-0.182 0.222-0.333 6e-3 -0.042 0.061-0.129 0.162-0.258 0.019-0.021 0.037-0.05 0.05-0.086 0.134-0.122 0.269-0.319 0.403-0.591 0.17-0.244 0.253-0.412 0.253-0.505-0.072-0.086-0.187-0.176-0.342-0.269" clip-path="url(#clipPath103)"/>
  <path transform="matrix(1.3333 0 0 -1.3333 143.02 111.08)" d="m0 0c0.08 0.092 0.174 0.25 0.281 0.473 0.061 0.064 0.095 0.203 0.101 0.419-0.039 0.143-0.073 0.361-0.1 0.655-0.121 0.301-0.187 0.474-0.201 0.516-0.099 0.216-0.208 0.352-0.321 0.409-0.175 0.243-0.415 0.441-0.724 0.591-0.294 0-0.484-0.039-0.571-0.118-0.175-0.022-0.393-0.215-0.653-0.58 0-0.043-0.044-0.154-0.131-0.334l-0.039-0.032 8e-3 -0.054c-6e-3 -0.043-0.025-0.121-0.054-0.236-0.015-0.043-0.036-0.122-0.066-0.237-0.013-0.1-0.013-0.254 0-0.462-0.026-0.058-0.04-0.118-0.04-0.183 0.011-0.028 0.024-0.079 0.04-0.151 0-0.014-7e-3 -0.037-0.025-0.069-0.017-0.032-0.025-0.063-0.025-0.091l0.014-0.14c0.031-0.043 0.042-0.101 0.036-0.172v-0.183l0.046-0.366c0.037 0.201 0.053 0.334 0.046 0.398l0.02 0.13c-0.022 0.085-0.031 0.16-0.031 0.225l0.031 0.14c0.072 0.071 0.145 0.104 0.219 0.096l0.141-0.042c7e-3 -0.123 0.043-0.297 0.11-0.527-0.033-0.107-0.049-0.24-0.049-0.398v-0.42l0.1-0.021c0.222 0.021 0.541 0.1 0.957 0.236 0.122 8e-3 0.249 0.061 0.386 0.162 0.161 0.122 0.267 0.194 0.322 0.216zm0.864 0.838c7e-3 -0.086 0.01-0.144 0.01-0.172-0.013-0.401-0.229-0.797-0.646-1.188-0.419-0.391-0.819-0.586-1.202-0.586-0.06-0.015-0.151-0.047-0.271-0.096h-0.08c-0.12-0.036-0.301-0.057-0.543-0.065-0.039-0.028-0.083-0.049-0.13-0.064l-0.02-0.085c0-0.022 7e-3 -0.047 0.02-0.076-7e-3 -0.049-0.011-0.116-0.011-0.202 0-0.115 8e-3 -0.254 0.021-0.418 0.013-0.057 0.037-0.136 0.07-0.236 0-0.092 0.018-0.213 0.05-0.363 0.041-0.178 0.064-0.3 0.071-0.363-0.06-0.215-0.128-0.321-0.201-0.321-0.288 0.014-0.445 0.1-0.472 0.258-0.013 0.2-0.03 0.397-0.05 0.591l0.03 0.129-0.02 0.043c-7e-3 0.286-0.034 0.48-0.08 0.58l-0.041 0.044c-7e-3 0.028-0.01 0.053-0.01 0.075 0 0.035 0.01 0.064 0.031 0.086-0.021 0.057-0.099 0.113-0.236 0.166-0.137 0.054-0.206 0.124-0.206 0.21 7e-3 0.143 0.072 0.225 0.2 0.247 7e-3 0.028 0.017 0.068 0.031 0.118-0.014 0.072-0.027 0.183-0.04 0.334 6e-3 0.071 0 0.124-0.02 0.161-0.06 0.609-0.088 1.01-0.08 1.204v0.462c0.046 0.136 0.072 0.269 0.08 0.398 7e-3 0.25 0.074 0.477 0.201 0.677 0.028 0.057 0.062 0.15 0.102 0.28 0.081 0.164 0.242 0.358 0.484 0.581 0.041 0.014 0.205 0.092 0.494 0.236 0.196 0.1 0.384 0.151 0.566 0.151 0.067-0.015 0.165-0.044 0.293-0.087 0.073-0.036 0.186-0.082 0.334-0.14 0.067-0.057 0.161-0.139 0.282-0.246 0.041-0.044 0.216-0.27 0.524-0.678 0.028-0.043 0.065-0.111 0.112-0.204 0.088-0.366 0.185-0.645 0.293-0.839 0.013-0.122 0.044-0.297 0.09-0.527z" clip-path="url(#clipPath105)"/>
  <path transform="matrix(1.3333 0 0 -1.3333 149.24 110.08)" d="m0 0v0.043c-7e-3 0.036-7e-3 0.079 0 0.129v0.129c0 0.057-4e-3 0.111-0.011 0.161 0.027 0.05 0.041 0.1 0.041 0.15-0.026 0.079-0.054 0.195-0.08 0.346-0.048 0.121-0.184 0.271-0.412 0.451-0.034 6e-3 -0.117 0.042-0.251 0.107-0.107 0.043-0.197 0.061-0.272 0.054-0.053-0.015-0.076-0.022-0.069-0.022-0.034 0-0.086 0.014-0.157 0.043-0.069 0.029-0.121 0.043-0.154 0.043h-0.744c-0.235-7e-3 -0.392-0.029-0.472-0.064-0.055-0.015-0.135-0.047-0.241-0.097l-0.041 0.01c-0.02 0-0.133-0.032-0.341-0.096-0.054-0.057-0.134-0.129-0.24-0.215-0.189-0.458-0.283-0.767-0.283-0.925 0-0.043 8e-3 -0.136 0.021-0.279 0.013-0.108 0.017-0.197 0.01-0.269 0.047-0.1 0.137-0.243 0.271-0.429 0.08-0.087 0.194-0.158 0.341-0.217 0.188-0.071 0.305-0.124 0.352-0.16l0.04 0.022c0.128 0 0.349 0.012 0.668 0.037 0.318 0.025 0.42 0.041 0.306 0.048 0.075-7e-3 0.175 0.036 0.302 0.129 0.114 0 0.261 0.029 0.441 0.087 0.075 0.042 0.185 0.089 0.332 0.139 0.181 0.129 0.298 0.222 0.351 0.28 0.134 0.121 0.231 0.243 0.292 0.365m0.552 0.617c-7e-3 -8e-3 -0.024-0.146-0.051-0.418-0.04-0.45-0.213-0.818-0.521-1.104-0.127-0.057-0.298-0.176-0.512-0.354-0.033 0-0.095-0.018-0.181-0.053-0.087-0.036-0.161-0.047-0.221-0.032-0.221-0.151-0.572-0.23-1.054-0.237-0.028 0-0.098-0.032-0.212-0.096-0.148-7e-3 -0.361 0.014-0.643 0.064-0.033-7e-3 -0.063-0.01-0.09-0.01-0.101 0-0.221 0.039-0.362 0.118-0.186 0.114-0.301 0.179-0.341 0.193-0.087 0.079-0.211 0.212-0.371 0.399-0.054 0.093-0.12 0.261-0.201 0.504 6e-3 0.122-0.01 0.298-0.051 0.528 0.021 0.021 0.03 0.049 0.03 0.085v0.075c-5e-3 0.029-9e-3 0.051-9e-3 0.065 0 0.064 0.016 0.155 0.051 0.274 0.033 0.119 0.049 0.21 0.049 0.275s-0.013 0.125-0.04 0.182c0.014 0.172 0.125 0.371 0.337 0.597 0.21 0.225 0.332 0.403 0.366 0.532 0.141 0.136 0.263 0.205 0.371 0.205 0.034 0 0.07-4e-3 0.111-0.012 0.019-0.093 0.054-0.222 0.1-0.386 0.014-8e-3 0.026-0.012 0.041-0.012 0.034 0 0.076 0.025 0.13 0.076 0.194 0.028 0.485 0.068 0.875 0.118 0.027-0.022 0.056-0.032 0.09-0.032 0.047 0.01 0.116 0.021 0.21 0.032 0.054 0 0.101-0.022 0.141-0.064l1.104-0.226c0.12-0.064 0.302-0.207 0.542-0.428 0.054-0.107 0.138-0.243 0.251-0.407v-0.129c-6e-3 -0.05-9e-3 -0.089-9e-3 -0.118 6e-3 -0.079 0.03-0.147 0.07-0.204" clip-path="url(#clipPath107)"/>
  <path transform="matrix(1.3333 0 0 -1.3333 153.81 111.08)" d="m0 0c0.081 0.092 0.176 0.25 0.282 0.473 0.061 0.064 0.095 0.203 0.102 0.419-0.04 0.143-0.073 0.361-0.1 0.655-0.121 0.301-0.188 0.474-0.201 0.516-0.102 0.216-0.208 0.352-0.321 0.409-0.175 0.243-0.415 0.441-0.724 0.591-0.295 0-0.484-0.039-0.572-0.118-0.174-0.022-0.392-0.215-0.654-0.58 0-0.043-0.042-0.154-0.129-0.334l-0.04-0.032 9e-3 -0.054c-7e-3 -0.043-0.026-0.121-0.055-0.236-0.014-0.043-0.036-0.122-0.066-0.237-0.012-0.1-0.012-0.254 0-0.462-0.027-0.058-0.04-0.118-0.04-0.183 0.012-0.028 0.024-0.079 0.04-0.151 0-0.014-8e-3 -0.037-0.025-0.069-0.016-0.032-0.025-0.063-0.025-0.091l0.014-0.14c0.03-0.043 0.043-0.101 0.036-0.172v-0.183l0.046-0.366c0.037 0.201 0.053 0.334 0.046 0.398l0.02 0.13c-0.021 0.085-0.031 0.16-0.031 0.225l0.031 0.14c0.073 0.071 0.146 0.104 0.22 0.096l0.142-0.042c5e-3 -0.123 0.043-0.297 0.11-0.527-0.034-0.107-0.051-0.24-0.051-0.398v-0.42l0.101-0.021c0.222 0.021 0.542 0.1 0.958 0.236 0.121 8e-3 0.249 0.061 0.384 0.162 0.16 0.122 0.268 0.194 0.322 0.216zm0.865 0.838c7e-3 -0.086 0.011-0.144 0.011-0.172-0.015-0.401-0.23-0.797-0.647-1.188-0.419-0.391-0.819-0.586-1.2-0.586-0.06-0.015-0.151-0.047-0.272-0.096h-0.08c-0.121-0.036-0.3-0.057-0.542-0.065-0.04-0.028-0.084-0.049-0.13-0.064l-0.021-0.085c0-0.022 6e-3 -0.047 0.021-0.076-7e-3 -0.049-0.011-0.116-0.011-0.202 0-0.115 7e-3 -0.254 0.02-0.418 0.014-0.057 0.037-0.136 0.071-0.236 0-0.092 0.016-0.213 0.05-0.363 0.041-0.178 0.063-0.3 0.071-0.363-0.061-0.215-0.128-0.321-0.201-0.321-0.289 0.014-0.447 0.1-0.474 0.258-0.012 0.2-0.03 0.397-0.05 0.591l0.031 0.129-0.021 0.043c-7e-3 0.286-0.033 0.48-0.08 0.58l-0.04 0.044c-7e-3 0.028-0.011 0.053-0.011 0.075 0 0.035 0.011 0.064 0.031 0.086-0.02 0.057-0.099 0.113-0.236 0.166-0.137 0.054-0.205 0.124-0.205 0.21 6e-3 0.143 0.072 0.225 0.199 0.247 7e-3 0.028 0.018 0.068 0.031 0.118-0.013 0.072-0.027 0.183-0.04 0.334 7e-3 0.071 0 0.124-0.02 0.161-0.06 0.609-0.087 1.01-0.081 1.204v0.462c0.048 0.136 0.074 0.269 0.081 0.398 7e-3 0.25 0.074 0.477 0.201 0.677 0.029 0.057 0.062 0.15 0.102 0.28 0.081 0.164 0.242 0.358 0.485 0.581 0.041 0.014 0.205 0.092 0.495 0.236 0.196 0.1 0.384 0.151 0.566 0.151 0.067-0.015 0.164-0.044 0.292-0.087 0.074-0.036 0.185-0.082 0.334-0.14 0.066-0.057 0.16-0.139 0.282-0.246 0.04-0.044 0.215-0.27 0.524-0.678 0.027-0.043 0.065-0.111 0.111-0.204 0.088-0.366 0.185-0.645 0.293-0.839 0.014-0.122 0.045-0.297 0.09-0.527z" clip-path="url(#clipPath109)"/>
  <path transform="matrix(1.3333 0 0 -1.3333 160.35 108.72)" d="m0 0c0-0.086-9e-3 -0.181-0.025-0.285-0.017-0.104-0.033-0.263-0.045-0.479-0.015-0.064-0.065-0.197-0.152-0.397-0.04-0.101-0.056-0.168-0.049-0.204-0.035-0.1-0.116-0.215-0.244-0.345-0.126-0.243-0.421-0.516-0.882-0.817-0.047-0.028-0.13-0.082-0.251-0.161-0.308-0.186-0.65-0.29-1.025-0.311-0.033-0.022-0.076-0.033-0.13-0.033-0.382 0-0.685 0.215-0.914 0.645-0.02 0.036-0.057 0.1-0.11 0.193l-0.011 0.022c-0.054 0.072-0.13 0.262-0.231 0.571-0.033 0.1-0.071 0.222-0.111 0.365 8e-3 0.028-3e-3 0.096-0.03 0.204v0.322c8e-3 0.064 0.018 0.165 0.03 0.301 0 0.036 0.011 0.122 0.031 0.258 0.019 0.115 0.023 0.201 9e-3 0.258-5e-3 0.087 4e-3 0.219 0.032 0.398 0.019 0.229 0.109 0.362 0.27 0.398 0.242 0 0.38-0.118 0.413-0.355 6e-3 -0.049-1e-3 -0.2-0.021-0.451-0.027-0.05-0.085-0.1-0.174-0.151-0.034-0.035-0.058-0.178-0.072-0.429l-0.029-0.291c0.035-0.043 0.055-0.1 0.055-0.172v-0.182c0.053-0.416 0.209-0.792 0.471-1.13 0.053-0.057 0.149-0.125 0.29-0.204 0.066-0.014 0.14-0.022 0.22-0.022 0.466 0 0.922 0.189 1.366 0.565 0.444 0.377 0.715 0.804 0.815 1.284 0 0.057 0.015 0.165 0.04 0.323 0.028 0.122 0.03 0.254 0.01 0.398-0.039 0.28-0.093 0.427-0.16 0.441-0.053-0.014-0.137 0.014-0.25 0.085-0.055 0.014-0.1 0.072-0.137 0.173-0.036 0.1-0.064 0.157-0.085 0.172 6e-3 0.028 0.03 0.089 0.07 0.183 0.127 0.128 0.244 0.2 0.352 0.215 0.168 0.028 0.265-0.012 0.291-0.119 0.067-0.071 0.135-0.183 0.201-0.333 0.081-0.179 0.134-0.294 0.162-0.344 0.012-0.215 0.016-0.401 0.01-0.559" clip-path="url(#clipPath111)"/>
  <path transform="matrix(1.3333 0 0 -1.3333 162.07 112.72)" d="m0 0-0.03-0.054c-0.068-0.115-0.155-0.176-0.262-0.182h-0.07c-0.053-8e-3 -0.104 0.014-0.151 0.064l-0.03 0.032c-0.033 0.022-0.074 0.033-0.12 0.033 0 0.1-0.02 0.247-0.061 0.44 0.014 0.172-0.013 0.38-0.08 0.623-0.094 0.337-0.147 0.535-0.16 0.592-0.014 0.057-0.044 0.197-0.091 0.419 0.02 0.086 0.02 0.197 0 0.334-0.026 0.172-0.037 0.289-0.03 0.354-0.041 0.122-0.067 0.309-0.08 0.559-0.026 0.187-0.041 0.484-0.041 0.893 0 0.107 0.015 0.268 0.041 0.484-7e-3 0.286-7e-3 0.451 0 0.494-0.02 0.072-0.023 0.157-0.011 0.258 0.021 0.129 0.028 0.22 0.021 0.274-7e-3 0.053 0 0.21 0.02 0.468 0 0.064 9e-3 0.179 0.031 0.345 0.012 0.142 0.019 0.253 0.019 0.333 0 0.235 7e-3 0.372 0.02 0.408 0.014 0.064 0.017 0.168 0.01 0.311 0.02 0.072 0.024 0.173 0.01 0.302 0.021 0.086 0.077 0.211 0.171 0.376 0.047 0.028 0.097 0.043 0.15 0.043s0.118-0.019 0.191-0.054c0.02-0.058 0.03-0.115 0.03-0.172 0-0.079-0.016-0.161-0.05-0.248-7e-3 -0.093-0.03-0.294-0.069-0.601-0.034-0.252-0.051-0.456-0.051-0.613-7e-3 -0.101-0.028-0.419-0.06-0.957 0.02-0.101 0.016-0.279-0.01-0.538-0.02-0.229-0.02-0.408 0-0.537 0.019-0.114 0.033-0.312 0.04-0.591 6e-3 -0.058 0.032-0.327 0.081-0.806 0.02-0.144 0.046-0.402 0.079-0.775 0.013-0.143 0.067-0.322 0.16-0.537-7e-3 -0.065 0.018-0.169 0.072-0.312 0 0.022 0.033-0.179 0.099-0.602 0.087-0.13 0.128-0.255 0.121-0.377 0.027-0.064 0.071-0.157 0.13-0.278 0.014-0.065 0-0.134-0.039-0.205" clip-path="url(#clipPath113)"/>
  <path transform="matrix(1.3333 0 0 -1.3333 167.15 112.82)" d="m0 0c-0.047-0.05-0.134-0.111-0.262-0.183-0.147-0.028-0.297 0.04-0.451 0.204-0.014 0.029-0.02 0.062-0.02 0.098 0 0.021 8e-3 0.062 0.025 0.123s0.021 0.105 0.015 0.134c-0.013 0.05-0.04 0.133-0.08 0.247-7e-3 0.158-0.05 0.388-0.13 0.689-8e-3 0.129-0.038 0.261-0.091 0.398-7e-3 0.036-0.03 0.099-0.07 0.193-0.035 0.072-0.051 0.136-0.051 0.193-0.033 0.079-0.111 0.19-0.231 0.333-0.033 0.022-0.144 0.093-0.331 0.216-0.262 0.043-0.402 0.06-0.422 0.053-0.047 0.014-0.104 0-0.171-0.043-0.087-0.05-0.147-0.079-0.181-0.086-0.074-0.072-0.181-0.186-0.322-0.344-0.026-0.014-0.12-0.111-0.281-0.29-0.047-0.079-0.106-0.204-0.179-0.376l-0.081-0.258c-6e-3 -0.044-0.017-0.154-0.031-0.333-6e-3 -0.123 0.017-0.227 0.071-0.312 0.147-0.222 0.381-0.37 0.702-0.441 0.268-0.057 0.544-0.043 0.825 0.043 0.134 0.071 0.211 0.158 0.231 0.258 0.08 0.114 0.18 0.178 0.301 0.194 0.147-0.051 0.267-0.14 0.361-0.27-0.019-0.035-0.034-0.096-0.04-0.182-0.034-0.057-0.089-0.147-0.17-0.269-0.101-0.042-0.291-0.096-0.572-0.161-0.041-7e-3 -0.145-0.047-0.312-0.118-0.093-7e-3 -0.219-0.018-0.372-0.033-0.014-6e-3 -0.048 4e-3 -0.101 0.033-0.121 0.021-0.298 0.05-0.531 0.086-0.189 0.093-0.372 0.204-0.554 0.333-0.08 0.108-0.18 0.311-0.3 0.612-0.027 0.273-0.014 0.489 0.039 0.646 0 0.036 0.034 0.14 0.102 0.312 0.019 0.035 0.053 0.093 0.099 0.172 7e-3 0.064 0.045 0.15 0.111 0.257 0.048 0.079 0.097 0.162 0.15 0.248 0.046 0.014 0.084 0.046 0.111 0.097l0.03 0.053c0.06 0.079 0.117 0.129 0.171 0.151 0.013 0.028 0.043 0.061 0.091 0.096l0.029 0.022c0.027 0.015 0.05 0.043 0.07 0.086 0.068 0.037 0.165 0.094 0.291 0.173 0.034-0.03 0.068-0.033 0.102-0.011 0.046 7e-3 0.106 0.035 0.18 0.085 0.168 7e-3 0.416-0.014 0.744-0.064 0.026-0.014 0.067-0.029 0.12-0.043-0.027 0.101-0.076 0.251-0.15 0.451-0.108 0.294-0.278 0.52-0.512 0.677-0.115 0.079-0.219 0.104-0.313 0.076-0.033-7e-3 -0.12-0.025-0.262-0.054-0.086-0.058-0.174-0.118-0.264-0.183-0.091-0.064-0.154-0.139-0.187-0.225-0.039-0.029-0.099-0.068-0.179-0.118l-0.152-0.194c-0.047-0.014-0.106 0.021-0.181 0.108-0.06 0.136-0.027 0.293 0.101 0.473 0.087 0.121 0.232 0.25 0.432 0.386 0.066 0.059 0.176 0.11 0.326 0.157 0.151 0.046 0.252 0.084 0.306 0.112 0.356 0 0.657-0.118 0.905-0.355 0.066-0.079 0.168-0.233 0.301-0.462 0.067-0.158 0.184-0.398 0.352-0.721-8e-3 -0.035 0.027-0.168 0.1-0.397 0.013-0.05 0.022-0.097 0.03-0.14 0.014-0.093 0.073-0.233 0.181-0.419 0-0.15 7e-3 -0.208 0.019-0.172 7e-3 -0.036 0.034-0.101 0.08-0.193 0.047-0.094 0.068-0.172 0.061-0.237 0.026-0.143 0.077-0.351 0.151-0.623 7e-3 -0.108 0.043-0.255 0.111-0.441 0.012-0.037 0.02-0.101 0.02-0.194 6e-3 -0.014 0.04-0.048 0.1-0.102 0.059-0.054 0.09-0.116 0.09-0.188-0.04-7e-3 -0.074-0.022-0.1-0.043" clip-path="url(#clipPath115)"/>
  <path transform="matrix(1.3333 0 0 -1.3333 168.95 112.1)" d="m0 0c7e-3 -0.044-4e-3 -0.091-0.029-0.145-0.029-0.054-0.051-0.11-0.071-0.167-0.067-0.122-0.182-0.247-0.342-0.376-0.114-0.014-0.228 0.054-0.341 0.205-0.088 0.121-0.148 0.25-0.182 0.386-0.019 0.071-0.06 0.247-0.12 0.527v0.075c0 0.029-7e-3 0.072-0.022 0.129-0.012 0.058-0.02 0.1-0.02 0.13-5e-3 0.079-9e-3 0.174-9e-3 0.29v1.204c8e-3 0.029 0.028 0.297 0.061 0.806-0.01 0.157-0.019 0.286-0.027 0.387-6e-3 0.1-0.012 0.168-0.014 0.204-2e-3 0.035-4e-3 0.039-4e-3 0.01-0.01 0.029-0.016 0.065-0.016 0.108-0.026 0.33 0.042 0.502 0.205 0.516 0.048 8e-3 0.137-0.021 0.267-0.086 0.047-0.057 0.074-0.128 0.081-0.215 7e-3 -0.057-1e-3 -0.14-0.024-0.247-0.025-0.108-0.036-0.183-0.036-0.226 7e-3 -0.071 0.027-0.132 0.06-0.183-0.04-0.122-0.06-0.272-0.06-0.451v-0.322c-5e-3 -0.101-0.018-0.248-0.04-0.441 0.026-0.029 0.04-0.061 0.04-0.097-7e-3 -0.08-7e-3 -0.201 0-0.365 0.023-0.273 0.042-0.463 0.06-0.57-7e-3 -0.05-7e-3 -0.111 0-0.183 0.013-0.15 0.042-0.298 0.088-0.441 0.07-0.201 0.148-0.298 0.232-0.29 0.013 0.029 0.047 0.061 0.098 0.096 0.014 0 0.044-0.041 0.093-0.124 0.049-0.081 0.072-0.13 0.072-0.144m-0.543 6.031c0.02-0.029 0.029-0.061 0.029-0.096 0-0.073-0.022-0.169-0.069-0.291-7e-3 -0.022-0.021-0.032-0.04-0.032-0.027-8e-3 -0.066 0-0.116 0.021-0.05 0.022-0.085 0.033-0.105 0.033-0.054-0.036-0.136-0.072-0.251-0.108-0.087 0-0.204 0.04-0.351 0.118 0-0.029-7e-3 0.032-0.02 0.183 0 0.035 6e-3 0.068 0.02 0.096 7e-3 0.086 0.054 0.178 0.145 0.274 0.091 0.098 0.143 0.155 0.155 0.173 0.014 0.018 0.035 0.027 0.061 0.027 0.141 0.014 0.257-0.039 0.352-0.161 0.12-0.158 0.184-0.237 0.19-0.237" clip-path="url(#clipPath117)"/>
  <path transform="matrix(1.3333 0 0 -1.3333 168.59 107.31)" d="m0 0h0.02c0.014 0 0.03 0.011 0.051 0.032 0.014 0.058 0 0.115-0.041 0.172l-0.03 0.043-0.05 0.366c-7e-3 0.043 0.066 0.104 0.222 0.183 0.026-7e-3 0.076-0.075 0.15-0.204v-0.033c0.054-0.1 0.123-0.25 0.21-0.452 0-0.021 0.019-0.146 0.051-0.375 7e-3 -0.043 7e-3 -0.086 0-0.129 0.021-0.086 0.087-0.205 0.201-0.355l0.03 0.011c0.034 0.014 0.053 0.05 0.06 0.107 0.021 0.323 0.178 0.662 0.473 1.022 0.133 0.171 0.273 0.28 0.421 0.322 0.04 0.014 0.084 0.014 0.129 0h0.051c0.074 0.029 0.181 0.029 0.322 0 0.161-0.036 0.271-0.05 0.331-0.042 0.1-0.036 0.245-0.093 0.432-0.171 0.021 0 0.043-0.012 0.071-0.033l0.019-0.021c0.048 0 0.141-0.071 0.282-0.214 0.06-0.092 0.12-0.145 0.181-0.16 0.067-0.086 0.144-0.245 0.231-0.48 0.013-0.057 0.043-0.139 0.091-0.246 0-0.064-0.054-0.113-0.161-0.149-0.047-0.014-0.124 2e-3 -0.23 0.048-0.109 0.047-0.183 0.071-0.223 0.071l0.01 0.01c7e-3 0.043-0.025 0.113-0.096 0.21-0.069 0.096-0.201 0.223-0.397 0.381-0.026 0.036-0.146 0.104-0.36 0.205-0.248-8e-3 -0.409-0.019-0.482-0.033-0.248-0.05-0.482-0.301-0.703-0.752-0.047-0.244-0.071-0.445-0.071-0.602 0-0.101 0.011-0.183 0.031-0.248-0.02-0.057-0.031-0.139-0.031-0.247 0-0.057 4e-3 -0.126 0.011-0.204 0.027-0.021 0.039-0.051 0.039-0.086v-0.043c0-0.05 8e-3 -0.104 0.021-0.161 6e-3 -0.015 0-0.032-0.021-0.054l-0.019-0.032c-7e-3 -0.108 0.019-0.266 0.08-0.473 0.014-0.144 0.02-0.363 0.02-0.656 0.014-0.108 0.06-0.248 0.141-0.419-0.014-0.065-0.064-0.154-0.151-0.269l-0.05-0.021c-0.047-0.072-0.134-0.147-0.26-0.227l-0.061-0.01c-0.08 0.043-0.177 0.115-0.292 0.215-7e-3 0.158 0.01 0.369 0.05 0.634 0.015 0.086 7e-3 0.2-0.019 0.344-0.027 0.128-0.027 0.23 0 0.301 0.013 0.043 3e-3 0.079-0.031 0.108l-0.019 0.022c0-8e-3 -0.027 0.203-0.081 0.633-0.013 0.108-0.021 0.219-0.021 0.333-0.032 0.208-0.093 0.517-0.18 0.926-0.019 0.064-0.08 0.207-0.18 0.429-0.034 0.108-0.091 0.266-0.172 0.473" clip-path="url(#clipPath119)"/>
  <path transform="matrix(1.3333 0 0 -1.3333 177.38 107.44)" d="m0 0c-0.014 0.042-0.054 0.067-0.12 0.075-0.068 7e-3 -0.102 0.057-0.102 0.151 0 0.049-0.05 0.074-0.15 0.074-0.032 0-0.087-8e-3 -0.16-0.026-0.074-0.018-0.127-0.027-0.16-0.027-0.101 0-0.192-0.029-0.272-0.086-0.127-0.072-0.315-0.161-0.562-0.269-0.141-0.093-0.332-0.273-0.573-0.537-0.04-0.015-0.084-0.055-0.13-0.118-0.046-0.093-0.094-0.189-0.14-0.285-0.047-0.097-0.072-0.192-0.072-0.285 0.087 0.014 0.138 0.021 0.152 0.021 0.034 0 0.076-0.018 0.131-0.054 0.052-0.036 0.096-0.054 0.131-0.054h0.12c0.012 0.015 0.026 0.022 0.04 0.022 0.013 0 0.026-9e-3 0.04-0.027 0.012-0.018 0.027-0.027 0.039-0.027 0.027 0 0.064 0.016 0.111 0.049 0.047 0.032 0.084 0.048 0.111 0.048 0.026 0 0.05-7e-3 0.07-0.021 0.187 0.071 0.418 0.172 0.693 0.301 0.287 0.193 0.441 0.297 0.461 0.312 0.148 0.121 0.268 0.268 0.362 0.44-0.014 0.294-0.02 0.401-0.02 0.323m1.668-3.086-0.01-0.043c6e-3 -0.014 0.01-0.032 0.01-0.054 0-0.043-0.014-0.086-0.04-0.129l-0.021-0.032c-0.033-0.057-0.067-0.118-0.099-0.182-0.028-0.029-0.095-0.051-0.201-0.065-0.041 0-0.105 0.014-0.192 0.043-0.134-0.043-0.328-0.129-0.582-0.258-0.106-0.014-0.258-0.065-0.452-0.15-0.028 0.021-0.054 0.032-0.081 0.032-0.021 0-0.062-0.013-0.125-0.038-0.065-0.025-0.116-0.03-0.156-0.016-0.101-0.043-0.258-0.064-0.472-0.064-0.034 0-0.085 6e-3 -0.155 0.021-0.071 0.015-0.122 0.022-0.157 0.022-0.06 0.014-0.15 0.043-0.27 0.086-0.034-7e-3 -0.165 0.017-0.393 0.075-0.052 7e-3 -0.128 0.05-0.225 0.129-0.097 0.078-0.212 0.157-0.346 0.236h-0.011c-0.026 0-0.05 0.032-0.07 0.097-0.24 0.222-0.425 0.556-0.552 1-6e-3 0.151-0.016 0.405-0.03 0.763 0 0.093 0.027 0.255 0.081 0.485 0.02 0.056 0.043 0.142 0.069 0.257 0.094 0.171 0.235 0.398 0.422 0.677 0.161 0.144 0.415 0.348 0.763 0.613 0.055 0.079 0.176 0.162 0.367 0.248s0.336 0.128 0.437 0.128h0.07c0.02 0 0.04 0.017 0.061 0.049 0.167 0.032 0.28 0.048 0.34 0.048 0.08 0 0.151-0.018 0.211-0.054 0.067-7e-3 0.151-0.059 0.253-0.155 0.1-0.098 0.17-0.153 0.209-0.167 0.049-0.194 0.095-0.294 0.142-0.301l0.019-0.011c0.014-0.015 0.021-0.035 0.021-0.065 0-0.015-3e-3 -0.032-0.011-0.054v-0.043c0.022-0.042 0.048-0.107 0.081-0.192 6e-3 -0.044 0.01-0.091 0.01-0.14 0-0.065-0.016-0.162-0.05-0.291-0.041-0.1-0.117-0.236-0.231-0.408-0.06-0.072-0.18-0.172-0.362-0.301-0.107-0.08-0.257-0.162-0.452-0.247-0.108-0.051-0.275-0.137-0.503-0.259-0.113-0.064-0.334-0.132-0.662-0.204l-0.19-0.042c-0.028-0.015-0.054-0.022-0.08-0.022-0.021 0-0.049 3e-3 -0.086 0.01-0.037 8e-3 -0.066 0.012-0.085 0.012h-0.021c-0.04-0.03-0.08-0.044-0.12-0.044-0.02 0-0.051 5e-3 -0.091 0.016s-0.07 0.016-0.091 0.016c-0.019-7e-3 -0.03-0.025-0.03-0.053 0.021-0.101 0.061-0.248 0.121-0.441 0.148-0.344 0.406-0.588 0.774-0.731 0.026-0.036 0.156-0.083 0.391-0.14s0.385-0.086 0.452-0.086c0.053 0 0.107 7e-3 0.162 0.021 0.011 0.022 0.032 0.033 0.059 0.033 0.013 0 0.032-4e-3 0.061-0.011 0.026-7e-3 0.047-0.011 0.058-0.011 0.048 0 0.119 0.013 0.218 0.038 0.096 0.025 0.169 0.038 0.215 0.038 0.148 0 0.249 0.032 0.302 0.096 0.108 8e-3 0.264 0.082 0.472 0.225 0.074 0.051 0.158 0.184 0.25 0.399 0.054 0.022 0.105 0.032 0.152 0.032 0.073 0 0.151-0.022 0.231-0.064l0.232-0.312c0-0.015-4e-3 -0.036-0.011-0.065" clip-path="url(#clipPath121)"/>
 </g>
 <path transform="matrix(1.3333 0 0 1.3333 4.9537 14.407)" d="m1.8277-0.012131c0.21094-0.011719 0.39844-0.1875 0.41016-0.39844v-2.2383c-0.011719-0.011719 0.011719-0.046875 0.046875-0.046875h1.7812c0.035156 0 0.070312-0.035156 0.070312-0.082031v-1.1953c0-0.035156-0.023437-0.070312-0.070312-0.070312h-1.7812c-0.023437 0-0.046875-0.023437-0.046875-0.046875v-1.1367c0-0.035156 0.023437-0.046875 0.046875-0.046875h2.7422c0.035156 0 0.070312-0.035156 0.070312-0.082031v-1.1836c0-0.035156-0.023437-0.070312-0.070312-0.070312h-3.9727c-0.21094 0.023437-0.375 0.1875-0.39844 0.38672v5.8008c0.011719 0.21094 0.17578 0.39844 0.39844 0.41016zm4.8545 0.011719c-0.21094 0-0.42188-0.17578-0.42188-0.36328v-5.8242c0-0.23438 0.1875-0.42188 0.42188-0.42188h3.9844c0.04687 0 0.08203 0.046875 0.08203 0.082031v1.1836c0 0.046875-0.03516 0.070312-0.08203 0.070312h-2.8008c-0.023437 0-0.046875 0.023437-0.046875 0.058594v1.1133c0 0.023437 0.023437 0.046875 0.046875 0.046875h1.875c0.058594 0 0.082031 0.035156 0.082031 0.082031v1.1719c0 0.046875-0.035156 0.070312-0.082031 0.070312h-1.8516c-0.035156 0-0.046875 0.035156-0.046875 0.058594v1.2656c0 0.023437 0.011719 0.046875 0.046875 0.046875h2.9766c0.04687 0 0.08203 0.046875 0.08203 0.082031v1.1953c0 0.046875-0.04687 0.082031-0.08203 0.082031zm3.2227-8.8359h-0.82031c-0.14062 0-0.28125-0.023437-0.45703 0.22266-0.16406 0.23438-0.62109 0.94922-0.66797 1.0078-0.070312 0.14062-0.058594 0.32812 0.22266 0.32812 0.28125 0 0.49219 0.023437 0.64453-0.070312 0.25781-0.17578 1.1133-1.0547 1.207-1.1484 0.16406-0.15234 0.10547-0.33984-0.12891-0.33984zm2.6631 8.8359s1.7227 0 1.875-0.023438c0.55078-0.035156 0.94922-0.09375 1.418-0.32812 0.60938-0.31641 0.92578-0.96094 0.92578-1.9336l0.01172-1.1016c0-1.5-0.12891-1.9453-0.41016-2.3438-0.35156-0.52734-0.91406-0.87891-2.5078-0.87891l-1.3008 0.011719c-0.22266 0.023437-0.38672 0.19922-0.38672 0.41016v5.8008c0.02344 0.19922 0.17578 0.36328 0.375 0.38672zm1.6523-5.2969c0.32812 0.023437 0.5625 0.046875 0.76172 0.35156 0.1875 0.26953 0.22266 0.77344 0.22266 1.582 0 0.10547-0.01172 0.67969-0.01172 0.78516-0.03516 1.2188-0.50391 1.2422-1.043 1.2773h-0.31641c-0.02344 0-0.04687-0.035156-0.04687-0.046875v-3.9141c0-0.023437 0.02344-0.035156 0.04687-0.035156h0.38672zm4.4678 5.2969c-0.21094 0-0.42188-0.17578-0.42188-0.36328v-5.8242c0-0.23438 0.1875-0.42188 0.42188-0.42188h3.9844c0.04687 0 0.08203 0.046875 0.08203 0.082031v1.1836c0 0.046875-0.03516 0.070312-0.08203 0.070312h-2.8008c-0.02344 0-0.04687 0.023437-0.04687 0.058594v1.1133c0 0.023437 0.02344 0.046875 0.04687 0.046875h1.875c0.05859 0 0.08203 0.035156 0.08203 0.082031v1.1719c0 0.046875-0.03516 0.070312-0.08203 0.070312h-1.8516c-0.03516 0-0.04687 0.035156-0.04687 0.058594v1.2656c0 0.023437 0.01172 0.046875 0.04687 0.046875h2.9766c0.04687 0 0.08203 0.046875 0.08203 0.082031v1.1953c0 0.046875-0.04687 0.082031-0.08203 0.082031zm3.2227-8.8359h-0.82031c-0.14062 0-0.28125-0.023437-0.45703 0.22266-0.16406 0.23438-0.62109 0.94922-0.66797 1.0078-0.07031 0.14062-0.05859 0.32812 0.22266 0.32812s0.49219 0.023437 0.64453-0.070312c0.25781-0.17578 1.1133-1.0547 1.207-1.1484 0.16406-0.15234 0.10547-0.33984-0.12891-0.33984zm5.5459 8.8359h1.5352c0.07031 0 0.09375-0.070312 0.07031-0.10547l-1.3477-2.7422c0-0.023437 0.02344-0.058594 0.03516-0.058594 0.96094-0.33984 1.1484-1.1484 1.1484-1.7461 0-0.78516-0.29297-1.3594-0.83203-1.6523-0.48047-0.25781-1.0664-0.29297-1.6172-0.29297h-2.0859c-0.02344 0-0.07031 0.023437-0.07031 0.070312v6.457c0 0.011719 0.02344 0.070312 0.07031 0.070312h1.3945c0.05859-0.011719 0.08203-0.058594 0.08203-0.070312v-2.5078c0-0.035156 0.01172-0.058594 0.04687-0.058594h0.26953c0.01172 0 0.03516 0.023437 0.04687 0.023437l1.1836 2.5664c0.01172 0.023438 0.03516 0.046875 0.07031 0.046875zm-1.6172-5.4023c0-0.011719 0.03516-0.046875 0.09375-0.046875 0.73828 0.011719 0.80859 0.011719 0.99609 0.082031 0.25781 0.10547 0.35156 0.28125 0.36328 0.69141-0.01172 0.35156-0.01172 0.64453-0.43359 0.79688-0.17578 0.058594-0.28125 0.058594-0.97266 0.058594-0.03516 0-0.04687-0.035156-0.04687-0.035156zm4.3037 5.4023h0.9375c0.03516 0 0.23438-0.058594 0.31641-0.32812l0.22266-0.92578c0-0.011719 0.02344-0.035156 0.04687-0.035156h1.7812c0.02344 0 0.03516 0.023437 0.04687 0.035156l0.24609 0.97266s0.04687 0.26953 0.32812 0.28125h0.91406s0.26953-0.046875 0.25781-0.31641c0-0.11719-1.7344-6.0703-1.7344-6.0703-0.02344-0.10547-0.14062-0.22266-0.29297-0.22266h-1.3594c-0.25781 0-0.30469 0.22266-0.30469 0.24609 0 0-1.6992 5.9766-1.6992 6.0703 0.01172 0.23438 0.22266 0.28125 0.29297 0.29297zm2.3438-4.9336c0.01172-0.011719 0.03516-0.035156 0.04687-0.035156 0.02344 0 0.04687 0.023437 0.05859 0.035156l0.5625 2.3438c0 0.011719 0 0.023437-0.01172 0.035156 0 0.011719-0.02344 0.011719-0.03516 0.011719h-1.1367c-0.01172 0-0.02344 0-0.03516-0.011719 0-0.011719-0.01172-0.023437 0-0.035156zm4.8896 4.9336h1.4766c0.04687 0 0.07031-0.035156 0.08203-0.082031v-5.1328c0-0.035156 0.02344-0.046875 0.04687-0.046875h1.4883c0.03516 0 0.07031-0.046875 0.07031-0.082031v-1.1836c0-0.035156-0.03516-0.082031-0.07031-0.070312h-4.7344c-0.04687 0-0.08203 0.046875-0.08203 0.070312v1.1836c0 0.035156 0.03516 0.082031 0.08203 0.082031h1.5117c0.03516 0 0.05859 0.011719 0.05859 0.046875v5.1328c0 0.046875 0.02344 0.082031 0.07031 0.082031zm5.8975 0c0.04687 0 0.08203-0.023438 0.08203-0.082031v-6.4453c0-0.035156-0.02344-0.082031-0.08203-0.082031h-1.418c-0.03516 0-0.08203 0.035156-0.08203 0.082031v6.4453c0 0.035156 0.03516 0.082031 0.08203 0.082031zm4.0752 0.17578c0.9375 0 1.7695-0.36328 2.1211-1.3594 0.15234-0.46875 0.16406-0.87891 0.17578-1.3242v-1.7344c0-0.97266-0.17578-1.3945-0.58594-1.8281-0.39844-0.42188-0.94922-0.63281-1.7109-0.64453-0.5625 0-1.2422 0.10547-1.7227 0.64453-0.38672 0.43359-0.58594 1.0078-0.57422 1.8281v1.7344c0 0.23438 0.02344 0.82031 0.16406 1.3242 0.38672 1.2773 1.582 1.3711 2.1328 1.3594zm0-5.543c0.375 0 0.49219 0.11719 0.58594 0.28125 0.08203 0.17578 0.09375 0.41016 0.08203 0.63281v2.2266c0 0.24609 0 0.51562-0.09375 0.72656-0.08203 0.21094-0.22266 0.35156-0.58594 0.36328-0.62109-0.011719-0.66797-0.45703-0.69141-1.0898v-2.2266c0-0.17578 0.01172-0.45703 0.09375-0.63281 0.09375-0.17578 0.24609-0.28125 0.60938-0.28125zm7.4209 5.3672h1.1602c0.04687-0.011719 0.08203-0.035156 0.08203-0.082031v-6.4453c0-0.035156-0.03516-0.082031-0.08203-0.082031h-1.2891c-0.03516 0.011719-0.08203 0.058594-0.08203 0.082031v2.4023c0 0.24609 0.02344 0.82031 0.02344 0.82031 0 0.058594-0.04687 0.070312-0.08203 0.023437-0.04687-0.09375-0.09375-0.1875-0.14062-0.26953l-1.6523-3.0117c-0.02344-0.023437-0.04687-0.046875-0.07031-0.046875h-1.3594c-0.03516 0-0.08203 0.035156-0.08203 0.082031v6.4453c0 0.035156 0.03516 0.082031 0.08203 0.082031h1.3008c0.03516 0 0.08203-0.035156 0.08203-0.082031v-3.0117c0-0.10547-0.02344-0.42188-0.02344-0.60938 0-0.035156 0.05859-0.070312 0.09375-0.023437 0.12891 0.30469 0.16406 0.375 0.25781 0.5625l1.7227 3.1172c0.01172 0.023438 0.03516 0.046875 0.05859 0.046874z" fill="#0553a2" aria-label="fdration"/>
 <path transform="matrix(1.3333 0 0 1.3333 4.9537 33.607)" d="m7.441-8.9844e-4c0.058594 0 0.10547-0.058594 0.10547-0.10547v-8.5898c0-0.046875-0.035156-0.11719-0.10547-0.11719h-1.9336c-0.046875 0-0.10547 0.070312-0.09375 0.11719v3.082c0 0.035156-0.035156 0.070312-0.070312 0.070312h-2.0742c-0.046875 0-0.070312-0.035156-0.070312-0.070312v-3.082c0-0.046875-0.046875-0.11719-0.10547-0.11719h-1.9102c-0.058594 0-0.10547 0.070312-0.09375 0.11719v8.5898c-0.011719 0.046875 0.046875 0.10547 0.09375 0.10547h1.9219c0.046875 0 0.10547-0.046875 0.10547-0.10547v-3.5391c0-0.035156 0.023437-0.070312 0.070312-0.070312h2.0977c0.035156 0 0.070312 0.035156 0.070312 0.070312v3.5391c-0.011719 0.046875 0.046875 0.10547 0.09375 0.10547zm2.0654 0h1.2422c0.05859 0 0.32812-0.070313 0.42188-0.44531l0.31641-1.2187c0-0.023437 0.02344-0.046875 0.05859-0.046875h2.3789c0.02344 0 0.04687 0.023437 0.05859 0.046875l0.31641 1.2891s0.05859 0.36328 0.44531 0.375h1.2188s0.35156-0.058594 0.33984-0.42188c0-0.15234-2.3086-8.0859-2.3086-8.0859-0.03516-0.14062-0.19922-0.30469-0.39844-0.30469h-1.8164c-0.32812 0-0.39844 0.30469-0.39844 0.32812 0 0-2.2617 7.9687-2.2617 8.0859 0.011719 0.32812 0.30469 0.38672 0.38672 0.39844zm3.1289-6.5742c0.01172-0.023437 0.03516-0.046875 0.05859-0.046875 0.03516 0 0.05859 0.023437 0.07031 0.046875l0.76172 3.1172c0 0.011719 0 0.035156-0.01172 0.046875s-0.03516 0.023437-0.04687 0.023437h-1.5117c-0.02344 0-0.03516-0.011719-0.05859-0.023437-0.01172-0.011719-0.02344-0.035156-0.01172-0.046875zm6.0586 6.0352c0.50391 0.46875 1.4648 0.76172 2.4258 0.73828 0.97266-0.023438 1.6172-0.22266 2.1797-0.66797 0.91406-0.75 0.92578-2.0039 0.92578-2.5547v-5.6836c0-0.070312-0.04687-0.11719-0.09375-0.11719h-1.9102c-0.03516 0-0.10547 0.035156-0.10547 0.11719v5.6719c-0.01172 0.41016-0.05859 0.70312-0.14062 0.91406-0.21094 0.50391-0.55078 0.51562-0.91406 0.55078-0.70312-0.023437-0.84375-0.26953-0.96094-0.53906-0.12891-0.28125-0.14062-0.62109-0.14062-0.9375v-5.6602c0.01172-0.058594-0.03516-0.10547-0.10547-0.11719h-1.957c-0.07031 0-0.10547 0.082031-0.10547 0.11719v5.5547c0 0.65625 0 1.7578 0.90234 2.6133zm9.3691 0.53906h1.9688c0.07031 0 0.10547-0.046875 0.11719-0.10547v-6.8555c0-0.035156 0.02344-0.058594 0.05859-0.058594h1.9805c0.04687 0 0.09375-0.058594 0.09375-0.10547v-1.5703c0-0.046875-0.04687-0.11719-0.09375-0.10547h-6.3047c-0.07031 0-0.10547 0.070312-0.10547 0.10547v1.5703c0 0.046875 0.04687 0.10547 0.10547 0.10547h2.0156c0.03516 0 0.07031 0.023437 0.07031 0.058594v6.8555c0 0.058594 0.03516 0.10547 0.09375 0.10547zm11.76 0c0.03516 0 0.10547-0.035156 0.10547-0.09375v-1.6055c0-0.058594-0.04687-0.10547-0.10547-0.11719h-3.9844c-0.03516 0-0.05859-0.023437-0.05859-0.058594v-1.6875c0-0.035156 0.02344-0.058594 0.05859-0.058594h2.4961c0.04687-0.011719 0.10547-0.046875 0.10547-0.10547v-1.582c0-0.046875-0.04687-0.09375-0.10547-0.09375h-2.5195c-0.03516 0-0.05859-0.023437-0.05859-0.058594v-1.5c0-0.035156 0.02344-0.058594 0.05859-0.058594h3.7383c0.05859 0 0.10547-0.046875 0.10547-0.10547v-1.5586c0-0.058594-0.04687-0.11719-0.10547-0.11719h-5.3203c-0.29297 0-0.55078 0.24609-0.5625 0.53906l0.01172 7.7813c0 0.26953 0.28125 0.48047 0.55078 0.48047zm1.2891-2.332h3.1172v-1.6055h-3.1172zm11.32 2.332h1.6523c0.05859 0 0.09375-0.058594 0.10547-0.10547v-8.5898c0-0.046875-0.04687-0.11719-0.10547-0.11719h-2.543c-0.04687 0-0.08203 0.035156-0.09375 0.09375l-1.0078 3.5391c-0.16406 0.5625-0.26953 0.98438-0.35156 1.3945-0.02344 0.058594-0.10547 0.082031-0.11719 0-0.08203-0.24609-0.35156-1.2773-0.375-1.3594-0.07031-0.25781-1.0078-3.5742-1.0078-3.5742-0.01172-0.058594-0.05859-0.09375-0.10547-0.09375h-2.5195c-0.07031 0-0.11719 0.070312-0.11719 0.11719v8.5898c0 0.035156 0.03516 0.09375 0.11719 0.10547h1.6172c0.05859 0 0.10547-0.046875 0.10547-0.10547v-4.6172c0-0.19922-0.02344-0.69141-0.03516-1.1953 0-0.09375 0.10547-0.082031 0.11719-0.023437l1.5117 5.8594c0.01172 0.046875 0.05859 0.082031 0.10547 0.082031h1.3008c0.04687 0 0.08203-0.035156 0.09375-0.082031l1.4414-5.7305c0.03516-0.082031 0.12891-0.046875 0.12891 0.011719-0.02344 0.46875-0.02344 0.82031-0.02344 1.0781v4.6172c0 0.035156 0.02344 0.09375 0.10547 0.10547zm3.7441 0h1.2422c0.05859 0 0.32812-0.070313 0.42188-0.44531l0.31641-1.2187c0-0.023437 0.02344-0.046875 0.05859-0.046875h2.3789c0.02344 0 0.04687 0.023437 0.05859 0.046875l0.31641 1.2891s0.05859 0.36328 0.44531 0.375h1.2188s0.35156-0.058594 0.33984-0.42188c0-0.15234-2.3086-8.0859-2.3086-8.0859-0.03516-0.14062-0.19922-0.30469-0.39844-0.30469h-1.8164c-0.32812 0-0.39844 0.30469-0.39844 0.32812 0 0-2.2617 7.9687-2.2617 8.0859 0.01172 0.32812 0.30469 0.38672 0.38672 0.39844zm3.1289-6.5742c0.01172-0.023437 0.03516-0.046875 0.05859-0.046875 0.03516 0 0.05859 0.023437 0.07031 0.046875l0.76172 3.1172c0 0.011719 0 0.035156-0.01172 0.046875s-0.03516 0.023437-0.04687 0.023437h-1.5117c-0.02344 0-0.03516-0.011719-0.05859-0.023437-0.01172-0.011719-0.02344-0.035156-0.01172-0.046875zm9.3047 6.5742h2.0508c0.08203 0 0.11719-0.09375 0.08203-0.14063l-1.793-3.6562c-0.01172-0.035156 0.02344-0.082031 0.03516-0.082031 1.2891-0.45703 1.5352-1.5234 1.5352-2.3203 0-1.043-0.375-1.8164-1.1133-2.2031-0.63281-0.33984-1.418-0.39844-2.1445-0.39844h-2.7891c-0.02344 0-0.09375 0.035156-0.09375 0.10547v8.6016c0 0.023438 0.03516 0.09375 0.09375 0.09375h1.8633c0.070308-0.011719 0.10546-0.070313 0.10546-0.09375v-3.3516c0-0.035156 0.02344-0.070312 0.05859-0.070312h0.36328c0.02344 0 0.04687 0.023437 0.05859 0.035156l1.582 3.4219c0.01172 0.035156 0.04687 0.058594 0.10547 0.058594zm-2.168-7.1953c0-0.023437 0.04687-0.070312 0.11719-0.070312 0.98438 0.023437 1.0898 0.023437 1.3359 0.11719 0.35156 0.14062 0.46875 0.36328 0.48047 0.92578-0.01172 0.44531-0.01172 0.84375-0.57422 1.0547-0.23438 0.082031-0.375 0.082031-1.3008 0.082031-0.04687 0-0.05859-0.046875-0.05859-0.058594zm10.828 7.1953h1.5469c0.058593-0.011719 0.09375-0.046875 0.10547-0.10547v-8.5898c0-0.046875-0.04687-0.11719-0.10547-0.11719h-1.7344c-0.04687 0.011719-0.10547 0.082031-0.10547 0.11719v3.1992c0 0.32812 0.03516 1.0898 0.03516 1.0898 0 0.070312-0.07031 0.082031-0.11719 0.035156-0.05859-0.12891-0.11719-0.24609-0.17578-0.35156l-2.2148-4.0195c-0.02344-0.046875-0.05859-0.070312-0.09375-0.070312h-1.793c-0.05859 0-0.11719 0.046875-0.11719 0.11719v8.5898c0 0.046875 0.03516 0.10547 0.11719 0.10547h1.7227c0.04687 0 0.10547-0.046875 0.10547-0.10547v-4.0195c0-0.15234-0.02344-0.5625-0.02344-0.80859 0-0.058594 0.07031-0.09375 0.11719-0.035156 0.17578 0.41016 0.22266 0.50391 0.35156 0.75l2.2969 4.1602c0.01172 0.035156 0.04687 0.058594 0.08203 0.058594zm9.8936 0c0.03516 0 0.10547-0.035156 0.10547-0.09375v-1.6055c0-0.058594-0.04687-0.10547-0.10547-0.11719h-3.9844c-0.03516 0-0.05859-0.023437-0.05859-0.058594v-1.6875c0-0.035156 0.02344-0.058594 0.05859-0.058594h2.4961c0.04687-0.011719 0.10547-0.046875 0.10547-0.10547v-1.582c0-0.046875-0.04687-0.09375-0.10547-0.09375h-2.5195c-0.03516 0-0.05859-0.023437-0.05859-0.058594v-1.5c0-0.035156 0.02344-0.058594 0.05859-0.058594h3.7383c0.05859 0 0.10547-0.046875 0.10547-0.10547v-1.5586c0-0.058594-0.04687-0.11719-0.10547-0.11719h-5.3203c-0.29297 0-0.55078 0.24609-0.5625 0.53906l0.01172 7.7813c0 0.26953 0.28125 0.48047 0.55078 0.48047z" fill="#e41018" aria-label="Haute-Marne"/>
</svg>
